<?xml version="1.0" encoding="utf-8"?>
<!-- Generator: Adobe Illustrator 16.0.0, SVG Export Plug-In . SVG Version: 6.00 Build 0)  -->
<!DOCTYPE svg PUBLIC "-//W3C//DTD SVG 1.1//EN" "http://www.w3.org/Graphics/SVG/1.1/DTD/svg11.dtd">
<svg version="1.1" id="Layer_1" xmlns="http://www.w3.org/2000/svg" xmlns:xlink="http://www.w3.org/1999/xlink" x="0px" y="0px"
	 width="64px" height="63.167px" viewBox="0 0 64 63.167" enable-background="new 0 0 64 63.167" xml:space="preserve">
<g>
	<path fill="#F9FAFB" d="M52.183,2.776H12.316c-4.807,0-8.703,3.895-8.703,8.705v39.865c0,4.806,3.896,8.702,8.703,8.702h39.866
		c4.809,0,8.703-3.896,8.703-8.702V11.48C60.886,6.67,56.991,2.776,52.183,2.776z"/>
	<path fill="#3C5B92" d="M52.796,1.896H11.705c-4.954,0-8.97,4.015-8.97,8.971v41.09c0,4.954,4.016,8.97,8.97,8.97h41.091
		c4.955,0,8.969-4.016,8.969-8.97v-41.09C61.765,5.911,57.751,1.896,52.796,1.896z M49.229,20.266h-3.916
		c-3.074,0-3.672,1.464-3.672,3.604v4.725h7.332l-0.955,7.402h-6.377v18.991h-7.641V35.998h-6.392v-7.402h6.392v-5.457
		c0-6.337,3.865-9.786,9.518-9.786c2.711,0,5.035,0.201,5.711,0.294V20.266z"/>
</g>
</svg>
