<?xml version="1.0" encoding="utf-8"?>
<!-- Generator: Adobe Illustrator 16.0.0, SVG Export Plug-In . SVG Version: 6.00 Build 0)  -->
<!DOCTYPE svg PUBLIC "-//W3C//DTD SVG 1.1//EN" "http://www.w3.org/Graphics/SVG/1.1/DTD/svg11.dtd">
<svg version="1.1" id="Layer_1" xmlns="http://www.w3.org/2000/svg" xmlns:xlink="http://www.w3.org/1999/xlink" x="0px" y="0px"
	 width="52.5px" height="51.167px" viewBox="0 0 52.5 51.167" enable-background="new 0 0 52.5 51.167" xml:space="preserve">
<path fill="#F3F2F2" d="M25.165,3.788c-12.424,0-22.497,10.073-22.497,22.5s10.073,22.5,22.497,22.5
	c12.428,0,22.501-10.073,22.501-22.5S37.593,3.788,25.165,3.788z M28.577,41.041c0,0.596-0.207,1.103-0.626,1.52
	c-0.417,0.418-0.923,0.627-1.52,0.627h-2.147c-0.596,0-1.103-0.209-1.521-0.627c-0.417-0.417-0.626-0.924-0.626-1.52v-1.842
	c0.017-0.596,0.238-1.11,0.664-1.545s0.938-0.652,1.534-0.652h2.044c0.597,0,1.112,0.215,1.546,0.641
	c0.435,0.426,0.651,0.928,0.651,1.506V41.041z M27.58,32.334c-0.051,0.612-0.28,1.124-0.688,1.533
	c-0.411,0.408-0.896,0.612-1.457,0.612c-0.632,0-1.147-0.213-1.547-0.639c-0.4-0.426-0.619-0.928-0.651-1.507l-1.049-20.913
	c-0.034-0.58,0.168-1.082,0.603-1.508c0.433-0.425,0.948-0.639,1.545-0.639h2.146c0.598,0,1.112,0.226,1.547,0.677
	c0.435,0.451,0.635,0.958,0.602,1.521L27.58,32.334z"/>
</svg>
