<?xml version="1.0" encoding="utf-8"?>
<!-- Generator: Adobe Illustrator 16.0.0, SVG Export Plug-In . SVG Version: 6.00 Build 0)  -->
<!DOCTYPE svg PUBLIC "-//W3C//DTD SVG 1.1//EN" "http://www.w3.org/Graphics/SVG/1.1/DTD/svg11.dtd">
<svg version="1.1" id="Layer_1" xmlns="http://www.w3.org/2000/svg" xmlns:xlink="http://www.w3.org/1999/xlink" x="0px" y="0px"
	 width="64px" height="63.167px" viewBox="0 0 64 63.167" enable-background="new 0 0 64 63.167" xml:space="preserve">
<g>
	<g>
		<g>
			<path opacity="0.9" fill="#F9FAFB" d="M52.177,2.782H12.32c-4.806,0-8.7,3.896-8.7,8.701v39.859c0,4.805,3.895,8.699,8.7,8.699
				h39.857c4.809,0,8.703-3.895,8.703-8.699V11.482C60.88,6.678,56.985,2.782,52.177,2.782z"/>
		</g>
	</g>
	<g>
		<path opacity="0.9" fill="#396288" d="M32.687,38.756c3.809,0,6.898-2.992,6.898-6.682c0-3.691-3.09-6.681-6.898-6.681
			c-3.807,0-6.893,2.989-6.893,6.681C25.793,35.764,28.879,38.756,32.687,38.756z"/>
		<path opacity="0.9" fill="#396288" d="M40.499,25.587h3.881c0.852,0,1.545-0.694,1.545-1.546v-3.698
			c0-0.85-0.693-1.546-1.545-1.546h-3.881c-0.852,0-1.545,0.696-1.545,1.546v3.698C38.954,24.893,39.647,25.587,40.499,25.587z"/>
		<path opacity="0.9" fill="#396288" d="M43.362,32.449c0,5.709-4.781,10.338-10.676,10.338c-5.891,0-10.671-4.629-10.671-10.338
			c0-1.025,0.155-2.013,0.442-2.947h-3.153v14.502c0,0.752,0.613,1.361,1.363,1.361h23.91c0.752,0,1.363-0.609,1.363-1.361V29.502
			h-3.021C43.206,30.437,43.362,31.424,43.362,32.449z"/>
		<path opacity="0.9" fill="#396288" d="M52.796,1.896H11.705c-4.956,0-8.972,4.017-8.972,8.969v41.092
			c0,4.955,4.016,8.969,8.972,8.969h41.091c4.953,0,8.971-4.014,8.971-8.969V10.865C61.767,5.913,57.749,1.896,52.796,1.896z
			 M49.821,44.908c0,2.424-1.982,4.406-4.404,4.406H19.896c-2.425,0-4.409-1.982-4.409-4.406v-25.52
			c0-2.423,1.984-4.406,4.409-4.406h25.521c2.422,0,4.404,1.983,4.404,4.406V44.908z"/>
	</g>
</g>
</svg>
