<?xml version="1.0" encoding="utf-8"?>
<!-- Generator: Adobe Illustrator 16.0.0, SVG Export Plug-In . SVG Version: 6.00 Build 0)  -->
<!DOCTYPE svg PUBLIC "-//W3C//DTD SVG 1.1//EN" "http://www.w3.org/Graphics/SVG/1.1/DTD/svg11.dtd">
<svg version="1.1" id="Layer_1" xmlns="http://www.w3.org/2000/svg" xmlns:xlink="http://www.w3.org/1999/xlink" x="0px" y="0px"
	 width="52.5px" height="51.167px" viewBox="0 0 52.5 51.167" enable-background="new 0 0 52.5 51.167" xml:space="preserve">
<g>
	<path fill-rule="evenodd" clip-rule="evenodd" fill="#F3F2F2" d="M19.259,13.544c-10.042,0-18.183,7.023-18.183,15.687
		c0,5.201,2.936,9.811,7.454,12.666l-2.562,6.477l6.275-4.666c2.158,0.779,4.528,1.211,7.015,1.211
		c10.041,0,18.182-7.023,18.182-15.688C37.44,20.567,29.3,13.544,19.259,13.544z"/>
	<path fill-rule="evenodd" clip-rule="evenodd" fill="#C0BEDF" d="M32.575,5.839c10.043,0,18.182,7.022,18.182,15.686
		c0,5.203-2.934,9.812-7.453,12.666l2.561,6.477L39.589,36c-2.158,0.779-4.527,1.211-7.014,1.211
		c-10.043,0-18.182-7.023-18.182-15.687C14.393,12.861,22.532,5.839,32.575,5.839z"/>
	<g>
		<path fill-rule="evenodd" clip-rule="evenodd" fill="#FFFFFF" d="M42.308,24.849c1.662,0,3.016-1.354,3.016-3.016
			c0-1.66-1.354-3.016-3.016-3.016s-3.016,1.355-3.016,3.016C39.292,23.494,40.646,24.849,42.308,24.849z"/>
		<path fill-rule="evenodd" clip-rule="evenodd" fill="#FFFFFF" d="M32.575,24.849c1.662,0,3.018-1.354,3.018-3.016
			c0-1.66-1.355-3.016-3.018-3.016c-1.66,0-3.016,1.355-3.016,3.016C29.56,23.494,30.915,24.849,32.575,24.849z"/>
		<path fill-rule="evenodd" clip-rule="evenodd" fill="#FFFFFF" d="M22.843,24.849c1.662,0,3.016-1.354,3.016-3.016
			c0-1.66-1.354-3.016-3.016-3.016s-3.016,1.355-3.016,3.016C19.827,23.494,21.181,24.849,22.843,24.849z"/>
	</g>
</g>
</svg>
