<?xml version="1.0" encoding="utf-8"?>
<!-- Generator: Adobe Illustrator 16.0.0, SVG Export Plug-In . SVG Version: 6.00 Build 0)  -->
<!DOCTYPE svg PUBLIC "-//W3C//DTD SVG 1.1//EN" "http://www.w3.org/Graphics/SVG/1.1/DTD/svg11.dtd">
<svg version="1.1" id="Layer_1" xmlns="http://www.w3.org/2000/svg" xmlns:xlink="http://www.w3.org/1999/xlink" x="0px" y="0px"
	 width="52.5px" height="51.167px" viewBox="0 0 52.5 51.167" enable-background="new 0 0 52.5 51.167" xml:space="preserve">
<g>
	<path fill="#F3F2F2" d="M25.137,16.989c3.811,0,6.905-3.092,6.905-6.901c0-3.812-3.094-6.903-6.905-6.903
		c-3.811,0-6.903,3.092-6.903,6.903C18.234,13.898,21.327,16.989,25.137,16.989 M28.065,17.458h-5.856
		c-4.873,0-8.837,3.965-8.837,8.838v7.163l0.018,0.114l0.493,0.152c4.65,1.453,8.691,1.938,12.016,1.938
		c6.494,0,10.26-1.852,10.492-1.972l0.461-0.231h0.051v-7.164C36.903,21.423,32.938,17.458,28.065,17.458"/>
	<path fill="#F3F2F2" d="M13.534,32.998c3.058,0,5.539-2.479,5.539-5.536c0-3.06-2.481-5.538-5.539-5.538
		c-3.057,0-5.538,2.479-5.538,5.538C7.996,30.519,10.477,32.998,13.534,32.998 M15.881,33.375h-4.697c-3.91,0-7.09,3.182-7.09,7.09
		v5.748l0.014,0.092l0.396,0.123c3.731,1.165,6.973,1.555,9.643,1.555c5.209,0,8.231-1.486,8.417-1.582l0.37-0.187h0.04v-5.749
		C22.973,36.556,19.793,33.375,15.881,33.375"/>
	<path fill="#C9C9CB" d="M13.534,32.998c3.058,0,5.539-2.479,5.539-5.536c0-3.06-2.481-5.538-5.539-5.538
		c-3.057,0-5.538,2.479-5.538,5.538C7.996,30.519,10.477,32.998,13.534,32.998 M15.881,33.375h-4.697c-3.91,0-7.09,3.182-7.09,7.09
		v5.748l0.014,0.092l0.396,0.123c3.731,1.165,6.973,1.555,9.643,1.555c5.209,0,8.231-1.486,8.417-1.582l0.37-0.187h0.04v-5.749
		C22.973,36.556,19.793,33.375,15.881,33.375"/>
	<path fill="#C9C9CB" d="M36.8,32.998c3.059,0,5.539-2.479,5.539-5.536c0-3.06-2.48-5.538-5.539-5.538
		c-3.057,0-5.537,2.479-5.537,5.538C31.263,30.519,33.743,32.998,36.8,32.998 M39.147,33.375H34.45c-3.91,0-7.09,3.182-7.09,7.09
		v5.748l0.014,0.092l0.396,0.123c3.73,1.165,6.973,1.555,9.643,1.555c5.209,0,8.23-1.486,8.416-1.582l0.371-0.187h0.039v-5.749
		C46.239,36.556,43.06,33.375,39.147,33.375"/>
</g>
</svg>
