<?xml version="1.0" encoding="utf-8"?>
<!-- Generator: Adobe Illustrator 16.0.0, SVG Export Plug-In . SVG Version: 6.00 Build 0)  -->
<!DOCTYPE svg PUBLIC "-//W3C//DTD SVG 1.1//EN" "http://www.w3.org/Graphics/SVG/1.1/DTD/svg11.dtd">
<svg version="1.1" id="Layer_1" xmlns="http://www.w3.org/2000/svg" xmlns:xlink="http://www.w3.org/1999/xlink" x="0px" y="0px"
	 width="89px" height="108px" viewBox="0 0 89 108" enable-background="new 0 0 89 108" xml:space="preserve">
<g>
	<g>
		<path fill="#F9FAFB" d="M23.971,72.982c-0.235,0.252-0.532,0.377-0.89,0.377h-0.243c-0.325,0-0.613-0.125-0.864-0.377
			c-0.253-0.252-0.379-0.54-0.379-0.865v-7.578H10.46v7.578c0,0.325-0.121,0.613-0.365,0.865c-0.243,0.252-0.535,0.377-0.877,0.377
			H8.974c-0.324,0-0.613-0.125-0.864-0.377c-0.252-0.252-0.378-0.54-0.378-0.865V55.354c0-0.34,0.126-0.633,0.378-0.877
			c0.251-0.243,0.54-0.365,0.864-0.365h0.244c0.342,0,0.634,0.122,0.877,0.365c0.244,0.244,0.365,0.537,0.365,0.877v6.457h11.135
			v-6.457c0-0.34,0.126-0.633,0.379-0.877c0.251-0.243,0.539-0.365,0.864-0.365h0.243c0.357,0,0.654,0.127,0.89,0.378
			c0.235,0.252,0.354,0.54,0.354,0.864v16.764C24.325,72.442,24.207,72.73,23.971,72.982z"/>
		<path fill="#F9FAFB" d="M42.233,66.537c0,0.91-0.155,1.787-0.464,2.632s-0.771,1.588-1.389,2.229
			c-0.617,0.643-1.4,1.154-2.351,1.535s-2.067,0.572-3.351,0.572s-2.399-0.191-3.35-0.572s-1.734-0.893-2.352-1.535
			c-0.617-0.642-1.08-1.385-1.389-2.229s-0.463-1.722-0.463-2.632c0-0.926,0.15-1.807,0.451-2.643
			c0.3-0.837,0.763-1.576,1.389-2.218c0.625-0.642,1.408-1.153,2.352-1.534c0.941-0.383,2.063-0.573,3.361-0.573
			c1.3,0,2.425,0.19,3.375,0.573c0.95,0.381,1.733,0.889,2.352,1.521c0.617,0.635,1.075,1.373,1.376,2.218
			S42.233,65.611,42.233,66.537z M39.503,66.537c0-0.6-0.098-1.169-0.292-1.705s-0.487-1.007-0.877-1.413
			c-0.39-0.405-0.89-0.731-1.499-0.975s-1.328-0.365-2.156-0.365s-1.547,0.122-2.156,0.365s-1.108,0.569-1.498,0.975
			c-0.391,0.406-0.682,0.882-0.877,1.425c-0.195,0.545-0.293,1.109-0.293,1.693c0,0.586,0.098,1.146,0.293,1.682
			s0.49,1.012,0.889,1.426s0.897,0.742,1.499,0.986c0.601,0.244,1.315,0.365,2.144,0.365s1.543-0.121,2.145-0.365
			c0.601-0.244,1.1-0.572,1.498-0.986s0.695-0.89,0.89-1.426S39.503,67.123,39.503,66.537z"/>
		<path fill="#F9FAFB" d="M65.257,73.006c-0.244,0.236-0.536,0.354-0.877,0.354h-0.146c-0.342,0-0.633-0.121-0.877-0.365
			c-0.244-0.243-0.365-0.535-0.365-0.877v-6.725c0-0.309-0.029-0.633-0.086-0.975s-0.187-0.658-0.39-0.95s-0.499-0.532-0.89-0.719
			c-0.39-0.187-0.918-0.28-1.584-0.28c-0.406,0-0.812,0.098-1.218,0.293c-0.405,0.194-0.776,0.446-1.108,0.755
			c-0.333,0.309-0.605,0.646-0.816,1.011s-0.316,0.728-0.316,1.084v6.506c0,0.357-0.122,0.654-0.365,0.889
			c-0.244,0.236-0.537,0.354-0.877,0.354h-0.146c-0.342,0-0.634-0.121-0.877-0.365c-0.244-0.243-0.365-0.535-0.365-0.877v-6.92
			c0-0.309-0.029-0.629-0.086-0.962s-0.188-0.634-0.39-0.901c-0.204-0.268-0.499-0.488-0.89-0.658
			c-0.39-0.17-0.918-0.256-1.584-0.256c-0.455,0-0.893,0.102-1.315,0.305s-0.792,0.463-1.108,0.779s-0.568,0.662-0.756,1.035
			c-0.187,0.375-0.279,0.74-0.279,1.098v6.48c0,0.342-0.127,0.634-0.378,0.877c-0.253,0.244-0.54,0.365-0.865,0.365h-0.146
			c-0.342,0-0.635-0.121-0.878-0.365c-0.243-0.243-0.365-0.535-0.365-0.877V61.227c0-0.357,0.122-0.654,0.365-0.89
			s0.536-0.354,0.878-0.354h0.146c0.341,0,0.634,0.122,0.878,0.366c0.243,0.243,0.365,0.535,0.365,0.877v0.561
			c0.471-0.586,0.97-1.057,1.498-1.414c0.527-0.357,1.189-0.535,1.986-0.535c0.779,0,1.42,0.053,1.924,0.158s0.93,0.248,1.279,0.426
			c0.35,0.18,0.638,0.382,0.865,0.609c0.227,0.228,0.446,0.463,0.658,0.707c0.471-0.586,1.067-1.049,1.791-1.389
			c0.723-0.342,1.481-0.512,2.277-0.512c1.202,0,2.181,0.142,2.936,0.426c0.756,0.285,1.344,0.678,1.768,1.182
			c0.422,0.504,0.71,1.093,0.864,1.767c0.154,0.675,0.231,1.401,0.231,2.181v6.725C65.622,72.475,65.501,72.771,65.257,73.006z"/>
		<path fill="#F9FAFB" d="M81.872,70.704c0,0.503-0.264,0.931-0.791,1.279c-0.529,0.349-1.154,0.638-1.877,0.864
			c-0.723,0.229-1.453,0.395-2.193,0.5c-0.738,0.105-1.318,0.158-1.74,0.158c-1.041,0-2.012-0.15-2.912-0.451
			c-0.902-0.3-1.689-0.742-2.363-1.327s-1.206-1.312-1.596-2.181c-0.391-0.869-0.585-1.872-0.585-3.01
			c0-1.137,0.194-2.139,0.585-3.008c0.39-0.869,0.922-1.597,1.596-2.182c0.674-0.584,1.461-1.027,2.363-1.328
			c0.9-0.3,1.871-0.45,2.912-0.45c0.99,0,1.891,0.134,2.703,0.401c0.813,0.269,1.508,0.65,2.084,1.146
			c0.576,0.495,1.023,1.104,1.34,1.826c0.316,0.724,0.475,1.539,0.475,2.449c0,0.73-0.26,1.324-0.779,1.779
			c-0.52,0.454-1.145,0.682-1.877,0.682h-8.697c0.275,1.023,0.848,1.814,1.717,2.375s1.889,0.841,3.059,0.841
			c0.439,0,0.877-0.044,1.316-0.134c0.438-0.089,0.855-0.203,1.254-0.342c0.398-0.137,0.771-0.291,1.121-0.463
			c0.35-0.17,0.646-0.328,0.889-0.475c0.211-0.13,0.432-0.195,0.658-0.195c0.373,0,0.689,0.114,0.951,0.342
			C81.743,70.03,81.872,70.33,81.872,70.704z M79.046,64.662c-0.016-0.488-0.143-0.902-0.377-1.243
			c-0.236-0.341-0.537-0.617-0.902-0.829c-0.365-0.21-0.768-0.36-1.205-0.45c-0.439-0.089-0.854-0.134-1.244-0.134
			c-0.584,0-1.137,0.082-1.656,0.244s-0.99,0.397-1.412,0.706c-0.424,0.309-0.781,0.675-1.072,1.097
			c-0.293,0.422-0.504,0.893-0.633,1.413h7.967c0.242,0,0.393-0.073,0.449-0.22C79.019,65.1,79.046,64.905,79.046,64.662z"/>
		<path fill="#F9FAFB" d="M25.056,91.949c0,0.91-0.168,1.711-0.5,2.4c-0.333,0.691-0.788,1.268-1.364,1.73
			c-0.577,0.463-1.259,0.813-2.047,1.047c-0.788,0.236-1.645,0.354-2.57,0.354H9.121c-0.373,0-0.698-0.137-0.975-0.414
			c-0.275-0.275-0.414-0.602-0.414-0.975L7.756,79.84c0-0.373,0.134-0.697,0.402-0.975c0.269-0.275,0.589-0.414,0.962-0.414h9.454
			c0.698,0,1.38,0.102,2.046,0.305s1.26,0.52,1.779,0.951c0.52,0.43,0.938,0.971,1.255,1.619c0.316,0.65,0.476,1.422,0.476,2.314
			c0,0.521-0.058,0.98-0.172,1.377c-0.113,0.398-0.252,0.752-0.414,1.061s-0.345,0.576-0.548,0.805
			c-0.203,0.227-0.386,0.422-0.548,0.584c0.26,0.131,0.544,0.32,0.853,0.572s0.593,0.568,0.853,0.951
			c0.26,0.381,0.476,0.82,0.646,1.314C24.97,90.801,25.056,91.35,25.056,91.949z M21.401,83.641c0-0.762-0.228-1.355-0.683-1.777
			s-1.169-0.635-2.144-0.635H10.46v5.215h8.114c0.942,0,1.648-0.252,2.12-0.756C21.166,85.186,21.401,84.502,21.401,83.641z
			 M22.327,91.949c0-0.422-0.062-0.803-0.183-1.145c-0.122-0.342-0.329-0.633-0.621-0.877c-0.293-0.244-0.679-0.43-1.158-0.561
			c-0.479-0.129-1.076-0.195-1.79-0.195H10.46v5.555h8.114c1.282,0,2.229-0.23,2.839-0.693
			C22.022,93.57,22.327,92.875,22.327,91.949z"/>
		<path fill="#F9FAFB" d="M40.941,95.068c0,0.504-0.264,0.93-0.791,1.279c-0.528,0.35-1.154,0.639-1.877,0.865
			s-1.453,0.393-2.192,0.5c-0.739,0.105-1.319,0.158-1.742,0.158c-1.04,0-2.011-0.15-2.911-0.451
			c-0.902-0.301-1.689-0.744-2.363-1.328c-0.675-0.584-1.207-1.311-1.596-2.18c-0.391-0.869-0.586-1.873-0.586-3.01
			s0.195-2.141,0.586-3.01c0.389-0.869,0.921-1.596,1.596-2.18c0.674-0.586,1.461-1.027,2.363-1.328
			c0.9-0.301,1.871-0.451,2.911-0.451c0.991,0,1.892,0.135,2.704,0.402s1.507,0.65,2.084,1.145c0.576,0.496,1.023,1.105,1.34,1.828
			s0.475,1.539,0.475,2.449c0,0.73-0.26,1.324-0.779,1.777c-0.52,0.455-1.145,0.684-1.876,0.684h-8.698
			c0.275,1.023,0.849,1.814,1.718,2.375c0.868,0.561,1.888,0.84,3.058,0.84c0.438,0,0.877-0.045,1.316-0.133
			c0.438-0.09,0.855-0.203,1.254-0.342s0.771-0.293,1.121-0.463s0.646-0.328,0.889-0.475c0.211-0.131,0.431-0.195,0.658-0.195
			c0.373,0,0.69,0.113,0.95,0.342C40.811,94.395,40.941,94.695,40.941,95.068z M38.115,89.025c-0.016-0.486-0.143-0.9-0.377-1.242
			c-0.236-0.342-0.537-0.617-0.902-0.828s-0.768-0.361-1.205-0.451c-0.439-0.088-0.854-0.133-1.243-0.133
			c-0.585,0-1.138,0.08-1.657,0.242c-0.52,0.164-0.99,0.398-1.412,0.707c-0.424,0.309-0.78,0.674-1.072,1.096
			c-0.293,0.424-0.504,0.895-0.634,1.414h7.968c0.243,0,0.393-0.072,0.45-0.219C38.086,89.465,38.115,89.27,38.115,89.025z"/>
		<path fill="#F9FAFB" d="M52.514,86.371c-0.13,0.162-0.276,0.283-0.438,0.365c-0.179,0.098-0.39,0.154-0.633,0.17
			c-0.716,0-1.345,0.105-1.889,0.316c-0.545,0.211-1.004,0.475-1.377,0.793c-0.373,0.316-0.658,0.654-0.853,1.01
			c-0.194,0.357-0.292,0.684-0.292,0.975v6.482c0,0.34-0.127,0.633-0.378,0.877c-0.253,0.242-0.54,0.365-0.865,0.365h-0.171
			c-0.341,0-0.633-0.123-0.877-0.365c-0.244-0.244-0.365-0.537-0.365-0.877V85.59c0-0.355,0.121-0.652,0.365-0.889
			c0.244-0.234,0.536-0.354,0.877-0.354h0.146c0.342,0,0.634,0.123,0.877,0.365c0.244,0.244,0.365,0.537,0.365,0.877v0.561
			c0.553-0.682,1.101-1.172,1.645-1.473c0.545-0.301,1.247-0.451,2.108-0.451c0.113,0,0.228,0,0.341,0s0.235,0.008,0.365,0.023
			c0.357,0.033,0.654,0.164,0.89,0.391s0.353,0.512,0.353,0.854v0.17C52.708,85.973,52.644,86.209,52.514,86.371z"/>
		<path fill="#F9FAFB" d="M62.552,86.371c-0.13,0.162-0.276,0.283-0.438,0.365c-0.179,0.098-0.39,0.154-0.634,0.17
			c-0.715,0-1.344,0.105-1.888,0.316s-1.003,0.475-1.377,0.793c-0.374,0.316-0.657,0.654-0.853,1.01
			c-0.195,0.357-0.293,0.684-0.293,0.975v6.482c0,0.34-0.125,0.633-0.377,0.877c-0.252,0.242-0.541,0.365-0.865,0.365h-0.17
			c-0.342,0-0.635-0.123-0.878-0.365c-0.243-0.244-0.365-0.537-0.365-0.877V85.59c0-0.355,0.122-0.652,0.365-0.889
			c0.243-0.234,0.536-0.354,0.878-0.354h0.146c0.341,0,0.634,0.123,0.878,0.365c0.243,0.244,0.365,0.537,0.365,0.877v0.561
			c0.552-0.682,1.1-1.172,1.645-1.473c0.543-0.301,1.246-0.451,2.107-0.451c0.113,0,0.227,0,0.341,0
			c0.113,0,0.235,0.008,0.366,0.023c0.356,0.033,0.652,0.164,0.889,0.391c0.235,0.227,0.354,0.512,0.354,0.854v0.17
			C62.747,85.973,62.682,86.209,62.552,86.371z"/>
		<path fill="#F9FAFB" d="M77.562,85.469c0,0.195-0.033,0.357-0.098,0.488l-5.848,12.377c-0.439,0.926-0.926,1.705-1.463,2.338
			c-0.535,0.635-1.071,1.143-1.607,1.523s-1.057,0.658-1.56,0.828s-0.95,0.256-1.34,0.256c-0.212,0-0.423-0.037-0.634-0.109
			s-0.402-0.174-0.572-0.305s-0.309-0.285-0.414-0.463c-0.105-0.18-0.158-0.381-0.158-0.609c0-0.373,0.121-0.666,0.365-0.877
			s0.487-0.316,0.73-0.316c0.082,0,0.264-0.021,0.549-0.061c0.283-0.041,0.625-0.158,1.023-0.354c0.397-0.195,0.82-0.5,1.267-0.914
			s0.864-0.986,1.255-1.717c-0.406-0.131-0.699-0.383-0.877-0.756l-5.092-10.867c-0.066-0.129-0.098-0.283-0.098-0.463
			c0-0.324,0.113-0.588,0.341-0.791s0.479-0.305,0.755-0.305h0.316c0.602,0,1.023,0.26,1.268,0.779l4.557,9.818l4.652-9.818
			c0.131-0.26,0.301-0.455,0.512-0.586c0.211-0.129,0.455-0.193,0.732-0.193h0.34c0.277,0,0.527,0.102,0.756,0.305
			C77.446,84.881,77.562,85.145,77.562,85.469z"/>
	</g>
	<g>
		<path fill="#F9FAFB" d="M33.974,17.039v-6.481c0-0.488,0.098-0.934,0.291-1.34c0.195-0.406,0.447-0.771,0.756-1.096
			c0.309-0.325,0.674-0.577,1.098-0.755c0.422-0.179,0.859-0.269,1.314-0.269h0.488c0.973,0,1.793,0.349,2.461,1.047
			c0.664,0.7,0.998,1.503,0.998,2.413v8.451L33.974,17.039z M41.38,31.494v10.592c0,0.91-0.334,1.714-0.998,2.413
			c-0.668,0.698-1.488,1.047-2.461,1.047h-0.488c-0.91,0-1.713-0.341-2.412-1.023s-1.047-1.494-1.047-2.437V29.884L41.38,31.494z
			 M8.111,19.009v-8.451c0-0.909,0.332-1.713,0.998-2.413c0.666-0.698,1.486-1.047,2.461-1.047h0.486
			c0.457,0,0.895,0.089,1.316,0.269c0.422,0.178,0.789,0.43,1.096,0.755c0.311,0.325,0.561,0.69,0.756,1.096
			c0.195,0.407,0.293,0.852,0.293,1.34v6.481L8.111,19.009z M15.517,29.884v12.202c0,0.943-0.35,1.754-1.049,2.437
			c-0.697,0.682-1.502,1.023-2.412,1.023H11.57c-0.975,0-1.795-0.35-2.461-1.047c-0.666-0.699-0.998-1.502-0.998-2.413V31.494
			L15.517,29.884z"/>
		<path fill="#438BC9" d="M83.382,30.83c-0.291-0.877-0.674-1.681-1.145-2.412c-0.473-0.731-0.984-1.381-1.535-1.95
			c-0.553-0.568-1.072-1.047-1.561-1.438c0.293-0.357,0.611-0.762,0.951-1.218c0.342-0.454,0.658-0.975,0.949-1.56
			c0.293-0.584,0.537-1.234,0.732-1.949c0.193-0.714,0.291-1.494,0.291-2.339c0-1.884-0.324-3.509-0.975-4.873
			c-0.648-1.364-1.51-2.493-2.582-3.387c-1.07-0.893-2.299-1.56-3.68-1.998C73.45,7.269,72.028,7.05,70.567,7.05H52.927
			c-0.486,0-0.957,0.105-1.414,0.317c-0.453,0.211-0.852,0.487-1.193,0.828c-0.34,0.341-0.607,0.74-0.803,1.194
			c-0.195,0.456-0.293,0.926-0.293,1.414l-0.018,11.305h-6.39l-16.541-4.741c-0.5-0.241-1.012-0.338-1.531-0.326
			c-0.523-0.013-1.035,0.085-1.535,0.326L6.646,22.021c-0.85,0.407-1.436,1.066-1.756,1.976c-0.318,0.91-0.275,1.79,0.131,2.639
			l0.211,0.44c0.197,0.41,0.467,0.767,0.811,1.071c0.344,0.304,0.729,0.523,1.156,0.661c0.426,0.138,0.865,0.208,1.314,0.208
			c0.451,0,0.895-0.105,1.336-0.316l14.895-3.855c0,0,15.777,4.171,16.23,4.171h8.222l-0.02,12.34c0,0.487,0.104,0.958,0.316,1.413
			c0.211,0.456,0.486,0.853,0.826,1.194c0.342,0.341,0.74,0.618,1.193,0.828c0.457,0.212,0.928,0.317,1.414,0.317h17.641
			c1.883,0,3.629-0.244,5.236-0.731s3.006-1.21,4.193-2.169c1.184-0.958,2.117-2.151,2.801-3.581
			c0.682-1.43,1.023-3.086,1.023-4.971C83.821,32.649,83.675,31.707,83.382,30.83z M56.581,14.505h13.986
			c1.428,0,2.477,0.317,3.143,0.95c0.664,0.633,0.998,1.471,0.998,2.51c0,1.235-0.35,2.233-1.047,2.997
			c-0.699,0.764-1.73,1.146-3.094,1.146H56.581V14.505z M75.001,36.702c-0.943,0.666-2.422,0.999-4.434,0.999H56.581v-8.089h13.986
			c2.207,0,3.734,0.358,4.578,1.072c0.846,0.715,1.268,1.705,1.268,2.972C76.413,35.021,75.942,36.036,75.001,36.702z"/>
	</g>
</g>
</svg>
