<?xml version="1.0" encoding="utf-8"?>
<!-- Generator: Adobe Illustrator 16.0.0, SVG Export Plug-In . SVG Version: 6.00 Build 0)  -->
<!DOCTYPE svg PUBLIC "-//W3C//DTD SVG 1.1//EN" "http://www.w3.org/Graphics/SVG/1.1/DTD/svg11.dtd">
<svg version="1.1" id="Layer_1" xmlns="http://www.w3.org/2000/svg" xmlns:xlink="http://www.w3.org/1999/xlink" x="0px" y="0px"
	 width="87.333px" height="49.333px" viewBox="0 0 87.333 49.333" enable-background="new 0 0 87.333 49.333" xml:space="preserve">
<g>
	<path fill="#F9FAFB" d="M32.89,15.575V9.094c0-0.488,0.098-0.934,0.292-1.34c0.195-0.406,0.446-0.771,0.756-1.096
		c0.308-0.325,0.674-0.577,1.097-0.755c0.422-0.179,0.859-0.269,1.315-0.269h0.487c0.974,0,1.794,0.349,2.461,1.047
		c0.665,0.7,0.998,1.503,0.998,2.413v8.451L32.89,15.575z M40.296,30.029v10.593c0,0.91-0.333,1.714-0.998,2.413
		c-0.667,0.697-1.487,1.047-2.461,1.047H36.35c-0.91,0-1.714-0.342-2.412-1.023c-0.699-0.682-1.048-1.494-1.048-2.437V28.419
		L40.296,30.029z M7.026,17.545V9.094c0-0.909,0.333-1.713,0.998-2.413c0.667-0.698,1.487-1.047,2.461-1.047h0.487
		c0.456,0,0.894,0.089,1.315,0.269c0.423,0.178,0.789,0.43,1.097,0.755c0.31,0.325,0.561,0.69,0.756,1.096
		c0.194,0.407,0.292,0.852,0.292,1.34v6.481L7.026,17.545z M14.433,28.419v12.202c0,0.942-0.349,1.755-1.048,2.437
		c-0.698,0.682-1.502,1.023-2.412,1.023h-0.487c-0.974,0-1.794-0.35-2.461-1.047c-0.665-0.699-0.998-1.503-0.998-2.413V30.029
		L14.433,28.419z"/>
	<path fill="#438BC9" d="M82.299,29.365c-0.293-0.877-0.676-1.681-1.146-2.411c-0.471-0.731-0.982-1.381-1.535-1.95
		c-0.553-0.568-1.072-1.047-1.559-1.438c0.293-0.357,0.609-0.762,0.951-1.218c0.34-0.454,0.656-0.975,0.949-1.56
		c0.291-0.584,0.535-1.234,0.73-1.949c0.195-0.714,0.293-1.494,0.293-2.339c0-1.884-0.326-3.509-0.975-4.873
		c-0.65-1.364-1.512-2.493-2.582-3.387c-1.072-0.893-2.299-1.56-3.68-1.998c-1.381-0.438-2.801-0.658-4.264-0.658H51.844
		c-0.488,0-0.959,0.105-1.414,0.317c-0.455,0.211-0.852,0.487-1.193,0.828c-0.34,0.341-0.609,0.74-0.803,1.194
		c-0.195,0.456-0.293,0.926-0.293,1.414l-0.018,11.305h-6.392l-16.54-4.741c-0.501-0.241-1.012-0.338-1.532-0.326
		c-0.522-0.013-1.034,0.085-1.535,0.326L5.562,20.557c-0.85,0.407-1.435,1.066-1.755,1.976c-0.319,0.91-0.275,1.79,0.131,2.639
		l0.211,0.439c0.197,0.41,0.467,0.768,0.811,1.072c0.344,0.303,0.729,0.523,1.155,0.66c0.426,0.139,0.865,0.208,1.314,0.208
		c0.451,0,0.896-0.104,1.336-0.315l14.895-3.855c0,0,15.778,4.171,16.23,4.171h8.222l-0.02,12.34c0,0.487,0.105,0.958,0.316,1.413
		s0.488,0.853,0.828,1.193c0.342,0.342,0.738,0.618,1.193,0.828c0.455,0.213,0.926,0.317,1.414,0.317h17.639
		c1.883,0,3.631-0.243,5.238-0.731c1.607-0.486,3.004-1.209,4.191-2.168c1.184-0.958,2.119-2.152,2.801-3.582
		c0.684-1.43,1.023-3.086,1.023-4.971C82.737,31.185,82.592,30.242,82.299,29.365z M55.497,13.041h13.986
		c1.43,0,2.477,0.317,3.143,0.95s0.998,1.471,0.998,2.51c0,1.235-0.348,2.233-1.047,2.997c-0.697,0.764-1.729,1.146-3.094,1.146
		H55.497V13.041z M73.917,35.238c-0.941,0.666-2.42,0.998-4.434,0.998H55.497v-8.089h13.986c2.209,0,3.734,0.358,4.58,1.072
		c0.846,0.715,1.266,1.705,1.266,2.972C75.329,33.556,74.86,34.572,73.917,35.238z"/>
</g>
</svg>
