<?xml version="1.0" encoding="utf-8"?>
<!-- Generator: Adobe Illustrator 16.0.0, SVG Export Plug-In . SVG Version: 6.00 Build 0)  -->
<!DOCTYPE svg PUBLIC "-//W3C//DTD SVG 1.1//EN" "http://www.w3.org/Graphics/SVG/1.1/DTD/svg11.dtd">
<svg version="1.1" id="Layer_1" xmlns="http://www.w3.org/2000/svg" xmlns:xlink="http://www.w3.org/1999/xlink" x="0px" y="0px"
	 width="196.5px" height="60.837px" viewBox="0 0 196.5 60.837" enable-background="new 0 0 196.5 60.837" xml:space="preserve">
<g>
	<path fill="#438BC9" d="M115.668,39.77c0,0.748-0.251,1.423-0.754,2.022c-0.504,0.603-1.163,1.121-1.975,1.56
		c-0.813,0.439-1.722,0.813-2.729,1.121c-1.007,0.309-2.015,0.552-3.021,0.73c-1.008,0.179-1.958,0.309-2.851,0.39
		c-0.895,0.082-1.617,0.122-2.169,0.122c-2.079,0-4.037-0.301-5.871-0.901c-1.837-0.601-3.436-1.502-4.802-2.704
		c-1.364-1.202-2.436-2.681-3.216-4.435c-0.779-1.755-1.169-3.784-1.169-6.091s0.39-4.345,1.169-6.116
		c0.78-1.77,1.852-3.248,3.216-4.435c1.366-1.185,2.965-2.087,4.802-2.705c1.834-0.616,3.792-0.925,5.871-0.925
		c2.015,0,3.85,0.276,5.506,0.828c1.657,0.553,3.078,1.348,4.266,2.388c1.186,1.04,2.102,2.299,2.753,3.776
		c0.649,1.479,0.974,3.16,0.974,5.044c0,0.845-0.162,1.583-0.486,2.218c-0.326,0.633-0.764,1.153-1.316,1.559
		c-0.553,0.407-1.201,0.707-1.948,0.901c-0.748,0.195-1.544,0.293-2.39,0.293H94.958c0.097,0.584,0.349,1.161,0.756,1.729
		c0.405,0.569,0.941,1.071,1.607,1.511c0.665,0.438,1.413,0.796,2.241,1.072s1.713,0.414,2.656,0.414
		c1.494,0,2.973-0.244,4.436-0.73c1.461-0.487,2.646-0.991,3.556-1.512c0.228-0.129,0.521-0.26,0.878-0.39
		c0.357-0.129,0.666-0.194,0.926-0.194c1.007,0,1.868,0.316,2.583,0.949C115.311,37.895,115.668,38.731,115.668,39.77z
		 M108.116,26.515c-0.358-0.584-0.828-1.071-1.413-1.462c-0.585-0.39-1.267-0.682-2.046-0.877c-0.781-0.195-1.578-0.292-2.389-0.292
		c-0.846,0-1.666,0.122-2.461,0.365c-0.797,0.244-1.519,0.569-2.169,0.975c-0.65,0.406-1.21,0.894-1.681,1.462
		c-0.471,0.569-0.805,1.178-0.999,1.828h13.692C108.651,27.766,108.473,27.1,108.116,26.515z"/>
	<path fill="#438BC9" d="M138.422,23.313c-0.358,0.475-0.763,0.827-1.218,1.055c-0.52,0.262-1.105,0.41-1.755,0.441
		c-1.169,0-2.192,0.163-3.069,0.487c-0.877,0.324-1.617,0.712-2.218,1.167c-0.602,0.454-1.056,0.956-1.364,1.507
		s-0.463,1.038-0.463,1.458v12.543c0,0.972-0.35,1.791-1.049,2.454c-0.697,0.664-1.502,0.997-2.411,0.997h-0.292
		c-0.977,0-1.797-0.334-2.461-0.999c-0.667-0.666-1-1.486-1-2.461V21.155c0-0.975,0.333-1.795,1-2.461
		c0.664-0.665,1.484-0.999,2.461-0.999h0.243c0.323,0,0.673,0.074,1.048,0.221c0.373,0.147,0.715,0.343,1.022,0.589
		c0.31,0.246,0.562,0.507,0.756,0.785c0.194,0.279,0.308,0.565,0.341,0.859c0.845-0.752,1.738-1.381,2.682-1.888
		c0.941-0.507,2.11-0.761,3.508-0.761c0.194,0,0.421,0,0.682,0c0.26,0,0.487,0.017,0.682,0.048c0.943,0.066,1.746,0.418,2.412,1.056
		c0.667,0.638,1,1.431,1,2.378v0.344C138.958,22.178,138.779,22.84,138.422,23.313z"/>
	<path fill="#438BC9" d="M159.669,23.313c-0.358,0.475-0.764,0.827-1.219,1.055c-0.52,0.262-1.104,0.41-1.755,0.441
		c-1.169,0-2.192,0.163-3.069,0.487c-0.877,0.324-1.617,0.712-2.218,1.167c-0.602,0.454-1.056,0.956-1.364,1.507
		s-0.463,1.038-0.463,1.458v12.543c0,0.972-0.35,1.791-1.049,2.454c-0.697,0.664-1.502,0.997-2.41,0.997h-0.293
		c-0.976,0-1.796-0.334-2.461-0.999c-0.666-0.666-0.999-1.486-0.999-2.461V21.155c0-0.975,0.333-1.795,0.999-2.461
		c0.665-0.665,1.485-0.999,2.461-0.999h0.244c0.324,0,0.673,0.074,1.047,0.221c0.373,0.147,0.715,0.343,1.023,0.589
		s0.561,0.507,0.755,0.785c0.194,0.279,0.309,0.565,0.341,0.859c0.845-0.752,1.738-1.381,2.682-1.888
		c0.941-0.507,2.11-0.761,3.508-0.761c0.195,0,0.421,0,0.682,0c0.26,0,0.487,0.017,0.682,0.048c0.943,0.066,1.747,0.418,2.413,1.056
		c0.667,0.638,1,1.431,1,2.378v0.344C160.206,22.178,160.026,22.84,159.669,23.313z"/>
	<path fill="#438BC9" d="M190.369,21.204c0,0.228-0.016,0.446-0.049,0.657c-0.033,0.212-0.113,0.447-0.244,0.707l-11.354,24.073
		c-0.877,1.851-1.859,3.41-2.949,4.678c-1.089,1.266-2.184,2.297-3.289,3.094c-1.104,0.796-2.177,1.365-3.215,1.706
		c-1.041,0.341-1.949,0.511-2.73,0.511c-0.52,0-1.047-0.098-1.582-0.292c-0.537-0.194-1.018-0.462-1.438-0.804
		c-0.423-0.342-0.771-0.748-1.048-1.219c-0.277-0.471-0.414-0.998-0.414-1.584c0-0.52,0.113-0.949,0.342-1.291
		c0.227-0.341,0.519-0.633,0.877-0.877c0.357-0.244,0.738-0.432,1.145-0.561c0.406-0.13,0.787-0.227,1.145-0.292
		c0.098-0.032,0.398-0.122,0.902-0.269c0.503-0.146,1.08-0.406,1.73-0.779c0.648-0.374,1.322-0.877,2.022-1.511
		c0.698-0.634,1.306-1.438,1.826-2.412c-0.356-0.162-0.666-0.438-0.926-0.828c-0.261-0.39-0.472-0.731-0.634-1.023l-9.502-20.32
		c-0.129-0.26-0.211-0.503-0.244-0.731c-0.031-0.227-0.049-0.438-0.049-0.633c0-0.975,0.334-1.754,1-2.34
		c0.664-0.584,1.389-0.877,2.168-0.877h0.585c1.624,0,2.761,0.699,3.411,2.096l7.603,16.373c1.267-2.761,2.559-5.498,3.874-8.211
		c1.315-2.712,2.607-5.433,3.873-8.162c0.324-0.682,0.78-1.201,1.365-1.56c0.584-0.357,1.25-0.536,1.998-0.536h0.634
		c0.845,0,1.584,0.301,2.218,0.902C190.052,19.49,190.369,20.262,190.369,21.204z"/>
	<g>
		<path fill="#F9FAFB" d="M33.977,17.011V10.53c0-0.488,0.098-0.934,0.292-1.34c0.195-0.406,0.446-0.771,0.756-1.096
			c0.308-0.325,0.674-0.577,1.097-0.755c0.422-0.179,0.859-0.269,1.315-0.269h0.487c0.974,0,1.794,0.349,2.461,1.047
			c0.665,0.7,0.998,1.503,0.998,2.413v8.451L33.977,17.011z M41.383,31.465v10.592c0,0.91-0.333,1.714-0.998,2.413
			c-0.667,0.697-1.487,1.047-2.461,1.047h-0.487c-0.91,0-1.714-0.341-2.412-1.023c-0.699-0.682-1.048-1.493-1.048-2.437V29.856
			L41.383,31.465z M8.113,18.981V10.53c0-0.909,0.333-1.713,0.998-2.413c0.667-0.698,1.487-1.047,2.461-1.047h0.487
			c0.456,0,0.894,0.089,1.315,0.269c0.423,0.178,0.789,0.43,1.097,0.755c0.31,0.325,0.561,0.69,0.756,1.096
			c0.194,0.407,0.292,0.852,0.292,1.34v6.481L8.113,18.981z M15.52,29.856v12.202c0,0.943-0.349,1.755-1.048,2.437
			c-0.698,0.683-1.502,1.023-2.412,1.023h-0.487c-0.974,0-1.794-0.35-2.461-1.047c-0.665-0.699-0.998-1.503-0.998-2.413V31.465
			L15.52,29.856z"/>
		<path fill="#438BC9" d="M83.386,30.801c-0.292-0.877-0.675-1.681-1.146-2.412c-0.472-0.731-0.983-1.381-1.535-1.95
			c-0.553-0.568-1.072-1.047-1.56-1.438c0.293-0.357,0.61-0.762,0.951-1.218c0.341-0.454,0.657-0.975,0.949-1.56
			c0.292-0.584,0.536-1.234,0.731-1.949c0.194-0.714,0.292-1.494,0.292-2.339c0-1.884-0.325-3.509-0.975-4.873
			s-1.511-2.493-2.582-3.387c-1.071-0.893-2.299-1.56-3.68-1.998c-1.38-0.438-2.801-0.658-4.263-0.658h-17.64
			c-0.487,0-0.958,0.105-1.414,0.317c-0.454,0.211-0.852,0.487-1.193,0.828c-0.34,0.341-0.608,0.74-0.803,1.194
			c-0.195,0.456-0.293,0.926-0.293,1.414L49.21,22.079h-6.392l-16.54-4.741c-0.501-0.241-1.012-0.338-1.532-0.326
			c-0.522-0.013-1.034,0.085-1.535,0.326L6.648,21.993c-0.85,0.407-1.435,1.066-1.755,1.976c-0.319,0.91-0.275,1.79,0.131,2.639
			l0.211,0.44c0.197,0.41,0.467,0.767,0.811,1.071c0.344,0.304,0.729,0.523,1.155,0.661c0.426,0.138,0.865,0.208,1.314,0.208
			c0.451,0,0.896-0.105,1.336-0.316l14.895-3.855c0,0,15.778,4.171,16.23,4.171h8.223l-0.02,12.34c0,0.487,0.104,0.959,0.316,1.413
			c0.211,0.455,0.487,0.853,0.827,1.194c0.342,0.341,0.739,0.617,1.193,0.828c0.456,0.212,0.927,0.316,1.414,0.316h17.64
			c1.883,0,3.63-0.243,5.237-0.73s3.005-1.21,4.192-2.169c1.184-0.958,2.118-2.151,2.801-3.581s1.023-3.086,1.023-4.971
			C83.824,32.621,83.679,31.679,83.386,30.801z M56.584,14.477H70.57c1.429,0,2.477,0.317,3.143,0.95
			c0.665,0.633,0.998,1.471,0.998,2.51c0,1.235-0.349,2.233-1.047,2.997c-0.698,0.764-1.729,1.146-3.094,1.146H56.584V14.477z
			 M75.004,36.674c-0.942,0.666-2.421,0.999-4.434,0.999H56.584v-8.09H70.57c2.208,0,3.734,0.358,4.579,1.072
			c0.846,0.715,1.267,1.705,1.267,2.973C76.416,34.992,75.946,36.008,75.004,36.674z"/>
	</g>
</g>
</svg>
