<?xml version="1.0" encoding="utf-8"?>
<!-- Generator: Adobe Illustrator 16.0.0, SVG Export Plug-In . SVG Version: 6.00 Build 0)  -->
<!DOCTYPE svg PUBLIC "-//W3C//DTD SVG 1.1//EN" "http://www.w3.org/Graphics/SVG/1.1/DTD/svg11.dtd">
<svg version="1.1" id="Layer_1" xmlns="http://www.w3.org/2000/svg" xmlns:xlink="http://www.w3.org/1999/xlink" x="0px" y="0px"
	 width="159.333px" height="56px" viewBox="0 0 159.333 56" enable-background="new 0 0 159.333 56" xml:space="preserve">
<g>
	<g>
		<path fill="#F9FAFB" d="M103.876,25.104c-0.206,0.22-0.467,0.332-0.778,0.332h-0.214c-0.286,0-0.538-0.111-0.758-0.332
			c-0.221-0.22-0.332-0.474-0.332-0.758v-6.644h-9.762v6.644c0,0.284-0.107,0.538-0.319,0.758c-0.214,0.22-0.473,0.332-0.77,0.332
			h-0.215c-0.284,0-0.537-0.111-0.757-0.332c-0.222-0.22-0.331-0.474-0.331-0.758V9.65c0-0.299,0.109-0.555,0.331-0.769
			c0.22-0.214,0.473-0.32,0.757-0.32h0.215c0.297,0,0.556,0.106,0.77,0.32c0.212,0.214,0.319,0.47,0.319,0.769v5.661h9.762V9.65
			c0-0.299,0.111-0.555,0.332-0.769c0.22-0.214,0.472-0.32,0.758-0.32h0.214c0.312,0,0.572,0.11,0.778,0.331
			c0.207,0.222,0.31,0.475,0.31,0.759v14.697C104.186,24.631,104.083,24.884,103.876,25.104z"/>
		<path fill="#F9FAFB" d="M119.887,19.455c0,0.797-0.137,1.566-0.406,2.307c-0.271,0.741-0.677,1.393-1.217,1.955
			c-0.543,0.563-1.229,1.011-2.062,1.346c-0.833,0.334-1.813,0.502-2.938,0.502c-1.124,0-2.104-0.168-2.938-0.502
			c-0.832-0.335-1.52-0.784-2.06-1.346c-0.542-0.562-0.947-1.214-1.218-1.955c-0.271-0.74-0.406-1.51-0.406-2.307
			c0-0.812,0.131-1.584,0.396-2.317c0.263-0.733,0.668-1.382,1.216-1.945c0.548-0.562,1.235-1.01,2.062-1.345
			c0.825-0.334,1.809-0.502,2.947-0.502c1.14,0,2.126,0.168,2.958,0.502c0.834,0.335,1.521,0.78,2.063,1.335
			c0.542,0.555,0.944,1.203,1.207,1.943C119.755,17.867,119.887,18.643,119.887,19.455z M117.493,19.455
			c0-0.527-0.085-1.025-0.256-1.496c-0.171-0.47-0.427-0.883-0.769-1.239s-0.778-0.641-1.314-0.854
			c-0.533-0.214-1.164-0.321-1.891-0.321c-0.726,0-1.355,0.106-1.89,0.321c-0.534,0.213-0.971,0.498-1.313,0.854
			c-0.342,0.356-0.598,0.773-0.77,1.25c-0.17,0.476-0.256,0.971-0.256,1.484c0,0.512,0.086,1.004,0.256,1.474
			c0.172,0.47,0.431,0.887,0.78,1.25c0.349,0.364,0.787,0.652,1.313,0.865c0.528,0.214,1.154,0.321,1.88,0.321
			c0.727,0,1.354-0.106,1.88-0.321c0.528-0.213,0.965-0.501,1.313-0.865c0.35-0.363,0.609-0.78,0.78-1.25
			S117.493,19.967,117.493,19.455z"/>
		<path fill="#F9FAFB" d="M140.072,25.125c-0.214,0.206-0.47,0.311-0.769,0.311h-0.13c-0.298,0-0.554-0.108-0.769-0.32
			c-0.212-0.214-0.32-0.471-0.32-0.769v-5.896c0-0.271-0.024-0.555-0.074-0.854c-0.049-0.3-0.164-0.577-0.342-0.833
			c-0.179-0.257-0.438-0.466-0.78-0.631c-0.341-0.163-0.804-0.245-1.389-0.245c-0.354,0-0.711,0.085-1.066,0.256
			c-0.356,0.171-0.68,0.392-0.973,0.663c-0.292,0.27-0.531,0.565-0.715,0.886c-0.186,0.32-0.278,0.638-0.278,0.951v5.704
			c0,0.313-0.106,0.573-0.32,0.779c-0.213,0.206-0.47,0.311-0.769,0.311h-0.129c-0.298,0-0.556-0.108-0.769-0.32
			c-0.214-0.214-0.321-0.471-0.321-0.769V18.28c0-0.271-0.024-0.552-0.074-0.844c-0.051-0.292-0.164-0.555-0.342-0.791
			c-0.179-0.234-0.438-0.426-0.779-0.576c-0.342-0.149-0.805-0.224-1.389-0.224c-0.398,0-0.782,0.088-1.153,0.267
			c-0.37,0.178-0.695,0.406-0.973,0.684s-0.498,0.581-0.662,0.908c-0.163,0.328-0.246,0.648-0.246,0.961v5.682
			c0,0.298-0.109,0.555-0.33,0.769c-0.222,0.212-0.474,0.32-0.759,0.32h-0.128c-0.299,0-0.556-0.108-0.769-0.32
			c-0.214-0.214-0.32-0.471-0.32-0.769v-9.549c0-0.313,0.106-0.573,0.32-0.78c0.213-0.206,0.47-0.31,0.769-0.31h0.128
			c0.3,0,0.557,0.107,0.77,0.32c0.213,0.214,0.319,0.47,0.319,0.769v0.491c0.414-0.512,0.852-0.925,1.314-1.238
			c0.462-0.313,1.043-0.47,1.74-0.47c0.685,0,1.246,0.046,1.688,0.139c0.44,0.093,0.815,0.217,1.122,0.374
			c0.306,0.157,0.559,0.334,0.757,0.534c0.2,0.2,0.392,0.406,0.577,0.62c0.412-0.513,0.937-0.919,1.57-1.218
			c0.632-0.299,1.3-0.449,1.996-0.449c1.054,0,1.914,0.125,2.575,0.374c0.662,0.25,1.178,0.596,1.549,1.036
			c0.37,0.442,0.623,0.958,0.758,1.549c0.136,0.591,0.202,1.228,0.202,1.912v5.896C140.392,24.659,140.285,24.919,140.072,25.125z"
			/>
		<path fill="#F9FAFB" d="M154.64,23.107c0,0.442-0.231,0.816-0.694,1.122c-0.463,0.307-1.012,0.56-1.644,0.758
			c-0.635,0.2-1.275,0.345-1.923,0.438c-0.649,0.093-1.158,0.139-1.527,0.139c-0.912,0-1.763-0.133-2.553-0.396
			c-0.791-0.263-1.481-0.652-2.072-1.164c-0.592-0.513-1.057-1.15-1.399-1.912c-0.341-0.761-0.513-1.641-0.513-2.638
			s0.172-1.876,0.513-2.638c0.343-0.762,0.808-1.399,1.399-1.911c0.591-0.513,1.281-0.901,2.072-1.165
			c0.79-0.264,1.641-0.396,2.553-0.396c0.867,0,1.658,0.117,2.371,0.352c0.712,0.236,1.32,0.57,1.827,1.004
			c0.505,0.434,0.896,0.969,1.173,1.602c0.277,0.634,0.417,1.35,0.417,2.147c0,0.641-0.228,1.16-0.683,1.559
			c-0.456,0.399-1.004,0.598-1.646,0.598h-7.626c0.242,0.898,0.744,1.592,1.507,2.083c0.761,0.491,1.654,0.737,2.679,0.737
			c0.387,0,0.771-0.039,1.155-0.117c0.385-0.078,0.751-0.178,1.1-0.299c0.35-0.121,0.677-0.257,0.983-0.406
			c0.305-0.149,0.565-0.289,0.777-0.416c0.187-0.114,0.379-0.171,0.578-0.171c0.327,0,0.605,0.1,0.833,0.299
			C154.526,22.517,154.64,22.78,154.64,23.107z M152.162,17.81c-0.015-0.427-0.124-0.791-0.331-1.089
			c-0.206-0.299-0.471-0.542-0.791-0.726c-0.319-0.184-0.673-0.317-1.058-0.395c-0.383-0.079-0.746-0.117-1.088-0.117
			c-0.513,0-0.998,0.07-1.454,0.213c-0.455,0.143-0.867,0.349-1.238,0.619c-0.369,0.271-0.684,0.591-0.94,0.961
			c-0.256,0.37-0.44,0.783-0.555,1.239h6.984c0.215,0,0.347-0.064,0.396-0.192C152.137,18.194,152.162,18.023,152.162,17.81z"/>
		<path fill="#F9FAFB" d="M104.827,41.733c0,0.798-0.146,1.5-0.438,2.104c-0.291,0.605-0.69,1.111-1.195,1.516
			c-0.505,0.406-1.104,0.713-1.793,0.919c-0.692,0.207-1.443,0.311-2.255,0.311h-8.288c-0.328,0-0.612-0.121-0.854-0.364
			c-0.243-0.24-0.362-0.526-0.362-0.854l0.02-14.248c0-0.328,0.119-0.612,0.354-0.854c0.234-0.242,0.516-0.364,0.844-0.364h8.288
			c0.611,0,1.211,0.089,1.795,0.268c0.583,0.179,1.103,0.456,1.559,0.833c0.455,0.377,0.822,0.852,1.1,1.42
			c0.277,0.57,0.417,1.247,0.417,2.029c0,0.457-0.05,0.858-0.149,1.207c-0.1,0.35-0.221,0.659-0.364,0.93
			c-0.142,0.271-0.302,0.506-0.479,0.705s-0.338,0.37-0.481,0.513c0.228,0.114,0.477,0.28,0.749,0.501
			c0.269,0.222,0.519,0.5,0.747,0.834s0.417,0.719,0.566,1.154C104.753,40.727,104.827,41.207,104.827,41.733z M101.623,34.449
			c0-0.669-0.199-1.188-0.598-1.559c-0.399-0.371-1.025-0.556-1.88-0.556h-7.113v4.571h7.113c0.825,0,1.445-0.221,1.858-0.662
			C101.416,35.803,101.623,35.205,101.623,34.449z M102.436,41.733c0-0.37-0.054-0.704-0.159-1.003
			c-0.108-0.3-0.29-0.556-0.546-0.77c-0.258-0.214-0.596-0.377-1.015-0.492c-0.421-0.113-0.943-0.17-1.57-0.17h-7.113v4.869h7.113
			c1.125,0,1.955-0.203,2.489-0.607C102.168,43.154,102.436,42.547,102.436,41.733z"/>
		<path fill="#F9FAFB" d="M118.755,44.468c0,0.442-0.231,0.815-0.693,1.122c-0.464,0.307-1.012,0.559-1.646,0.758
			c-0.633,0.199-1.273,0.346-1.922,0.438c-0.648,0.093-1.157,0.139-1.527,0.139c-0.912,0-1.763-0.131-2.553-0.395
			s-1.48-0.652-2.072-1.164c-0.59-0.513-1.058-1.15-1.398-1.912c-0.343-0.762-0.512-1.641-0.512-2.638s0.169-1.876,0.512-2.639
			c0.341-0.761,0.809-1.399,1.398-1.911c0.592-0.513,1.282-0.9,2.072-1.164s1.641-0.395,2.553-0.395
			c0.868,0,1.658,0.116,2.371,0.352c0.712,0.234,1.32,0.57,1.827,1.004c0.505,0.434,0.897,0.969,1.173,1.602
			c0.279,0.635,0.418,1.35,0.418,2.147c0,0.641-0.229,1.161-0.684,1.56s-1.005,0.598-1.645,0.598h-7.626
			c0.241,0.896,0.743,1.592,1.506,2.083c0.762,0.49,1.655,0.736,2.681,0.736c0.384,0,0.77-0.038,1.153-0.117
			c0.384-0.078,0.751-0.179,1.101-0.299c0.349-0.121,0.675-0.257,0.983-0.407c0.306-0.148,0.564-0.287,0.778-0.416
			c0.185-0.113,0.377-0.17,0.577-0.17c0.328,0,0.604,0.1,0.834,0.299C118.64,43.877,118.755,44.141,118.755,44.468z M116.276,39.17
			c-0.015-0.426-0.125-0.79-0.331-1.089s-0.469-0.542-0.791-0.726c-0.319-0.186-0.673-0.317-1.056-0.396
			c-0.385-0.079-0.747-0.118-1.09-0.118c-0.514,0-0.997,0.072-1.452,0.215s-0.869,0.348-1.24,0.619
			c-0.369,0.27-0.684,0.59-0.938,0.961c-0.257,0.37-0.442,0.783-0.556,1.238h6.983c0.215,0,0.346-0.063,0.396-0.191
			C116.251,39.555,116.276,39.385,116.276,39.17z"/>
		<path fill="#F9FAFB" d="M128.9,36.842c-0.113,0.143-0.241,0.25-0.384,0.32c-0.157,0.086-0.343,0.137-0.555,0.15
			c-0.628,0-1.18,0.092-1.655,0.277c-0.478,0.186-0.88,0.416-1.208,0.694s-0.576,0.573-0.749,0.886
			c-0.169,0.314-0.255,0.598-0.255,0.855v5.682c0,0.299-0.11,0.555-0.331,0.77c-0.22,0.213-0.473,0.32-0.759,0.32h-0.148
			c-0.3,0-0.556-0.107-0.771-0.32c-0.212-0.215-0.319-0.471-0.319-0.77v-9.549c0-0.313,0.107-0.573,0.319-0.779
			c0.215-0.207,0.471-0.311,0.771-0.311h0.128c0.299,0,0.557,0.107,0.769,0.321c0.214,0.214,0.319,0.47,0.319,0.769v0.491
			c0.486-0.598,0.966-1.028,1.443-1.292c0.477-0.263,1.093-0.395,1.848-0.395c0.101,0,0.199,0,0.299,0s0.206,0.008,0.321,0.021
			c0.313,0.027,0.572,0.142,0.778,0.342c0.206,0.199,0.312,0.448,0.312,0.748v0.148C129.073,36.493,129.015,36.7,128.9,36.842z"/>
		<path fill="#F9FAFB" d="M137.701,36.842c-0.113,0.143-0.241,0.25-0.384,0.32c-0.156,0.086-0.343,0.137-0.555,0.15
			c-0.627,0-1.18,0.092-1.656,0.277s-0.879,0.416-1.206,0.694c-0.329,0.278-0.577,0.573-0.749,0.886
			c-0.169,0.314-0.255,0.598-0.255,0.855v5.682c0,0.299-0.11,0.555-0.332,0.77c-0.221,0.213-0.473,0.32-0.759,0.32h-0.149
			c-0.3,0-0.555-0.107-0.77-0.32c-0.212-0.215-0.319-0.471-0.319-0.77v-9.549c0-0.313,0.107-0.573,0.319-0.779
			c0.215-0.207,0.47-0.311,0.77-0.311h0.129c0.3,0,0.556,0.107,0.769,0.321s0.319,0.47,0.319,0.769v0.491
			c0.484-0.598,0.966-1.028,1.443-1.292c0.476-0.263,1.093-0.395,1.848-0.395c0.099,0,0.199,0,0.299,0s0.206,0.008,0.32,0.021
			c0.313,0.027,0.573,0.142,0.779,0.342c0.206,0.199,0.312,0.448,0.312,0.748v0.148C137.874,36.493,137.815,36.7,137.701,36.842z"/>
		<path fill="#F9FAFB" d="M150.86,36.052c0,0.171-0.03,0.313-0.086,0.427l-5.126,10.852c-0.386,0.813-0.813,1.496-1.281,2.051
			c-0.472,0.556-0.941,1-1.411,1.335c-0.469,0.334-0.925,0.577-1.366,0.728c-0.442,0.148-0.833,0.224-1.175,0.224
			c-0.187,0-0.371-0.032-0.555-0.097c-0.187-0.064-0.354-0.153-0.503-0.268c-0.148-0.113-0.271-0.248-0.363-0.405
			s-0.14-0.335-0.14-0.534c0-0.328,0.107-0.584,0.321-0.77c0.214-0.185,0.428-0.277,0.641-0.277c0.07,0,0.231-0.018,0.481-0.053
			c0.247-0.035,0.548-0.139,0.896-0.311c0.35-0.17,0.719-0.438,1.11-0.801c0.393-0.363,0.759-0.865,1.101-1.506
			c-0.356-0.113-0.612-0.334-0.769-0.662l-4.464-9.527c-0.059-0.113-0.087-0.248-0.087-0.405c0-0.284,0.1-0.517,0.3-0.694
			c0.199-0.178,0.419-0.268,0.661-0.268h0.277c0.527,0,0.898,0.229,1.11,0.685l3.996,8.608l4.079-8.608
			c0.115-0.228,0.264-0.399,0.449-0.513c0.185-0.113,0.398-0.172,0.642-0.172h0.299c0.241,0,0.462,0.09,0.662,0.268
			C150.76,35.535,150.86,35.768,150.86,36.052z"/>
	</g>
	<g>
		<path fill="#F9FAFB" d="M33.12,18.546v-6.481c0-0.488,0.098-0.934,0.292-1.34c0.195-0.406,0.446-0.771,0.756-1.096
			c0.308-0.325,0.674-0.577,1.097-0.755c0.422-0.179,0.859-0.269,1.315-0.269h0.487c0.974,0,1.794,0.349,2.461,1.047
			c0.665,0.7,0.998,1.503,0.998,2.413v8.451L33.12,18.546z M40.526,33v10.593c0,0.91-0.333,1.714-0.998,2.413
			c-0.667,0.697-1.487,1.047-2.461,1.047H36.58c-0.91,0-1.714-0.342-2.412-1.023c-0.699-0.682-1.048-1.494-1.048-2.437V31.391
			L40.526,33z M7.257,20.516v-8.451c0-0.909,0.333-1.713,0.998-2.413c0.667-0.698,1.487-1.047,2.461-1.047h0.487
			c0.456,0,0.894,0.089,1.315,0.269c0.423,0.178,0.789,0.43,1.097,0.755c0.31,0.325,0.561,0.69,0.756,1.096
			c0.194,0.407,0.292,0.852,0.292,1.34v6.481L7.257,20.516z M14.663,31.391v12.202c0,0.942-0.349,1.755-1.048,2.437
			c-0.698,0.682-1.502,1.023-2.412,1.023h-0.487c-0.974,0-1.794-0.35-2.461-1.047c-0.665-0.699-0.998-1.503-0.998-2.413V33
			L14.663,31.391z"/>
		<path fill="#438BC9" d="M82.529,32.336c-0.292-0.877-0.675-1.681-1.146-2.411c-0.472-0.731-0.983-1.381-1.535-1.95
			c-0.553-0.568-1.072-1.047-1.56-1.438c0.293-0.357,0.61-0.762,0.951-1.218c0.341-0.454,0.657-0.975,0.949-1.56
			c0.292-0.584,0.536-1.234,0.731-1.949c0.194-0.714,0.292-1.494,0.292-2.339c0-1.884-0.325-3.509-0.975-4.873
			s-1.511-2.493-2.582-3.387c-1.071-0.893-2.299-1.56-3.68-1.998c-1.38-0.438-2.801-0.658-4.263-0.658h-17.64
			c-0.487,0-0.958,0.105-1.414,0.317c-0.454,0.211-0.852,0.487-1.193,0.828c-0.34,0.341-0.608,0.74-0.803,1.194
			c-0.195,0.456-0.293,0.926-0.293,1.414l-0.018,11.305h-6.392l-16.54-4.741c-0.501-0.241-1.012-0.338-1.532-0.326
			c-0.522-0.013-1.034,0.085-1.535,0.326L5.792,23.528c-0.85,0.407-1.435,1.066-1.755,1.976c-0.319,0.91-0.275,1.79,0.131,2.639
			l0.211,0.44c0.197,0.41,0.467,0.767,0.811,1.072c0.344,0.303,0.729,0.523,1.155,0.66c0.426,0.139,0.865,0.208,1.314,0.208
			c0.451,0,0.896-0.104,1.336-0.315l14.895-3.855c0,0,15.778,4.171,16.23,4.171h8.223l-0.02,12.34c0,0.487,0.104,0.958,0.316,1.413
			c0.211,0.455,0.487,0.853,0.827,1.193c0.342,0.342,0.739,0.618,1.193,0.828c0.456,0.213,0.927,0.317,1.414,0.317h17.64
			c1.883,0,3.63-0.243,5.237-0.731c1.607-0.486,3.005-1.209,4.192-2.168c1.184-0.958,2.118-2.152,2.801-3.582
			s1.023-3.086,1.023-4.971C82.968,34.156,82.822,33.213,82.529,32.336z M55.728,16.012h13.986c1.429,0,2.477,0.317,3.143,0.95
			c0.665,0.633,0.998,1.471,0.998,2.51c0,1.235-0.349,2.233-1.047,2.997c-0.698,0.764-1.729,1.146-3.094,1.146H55.728V16.012z
			 M74.147,38.209c-0.942,0.666-2.421,0.998-4.434,0.998H55.728v-8.089h13.986c2.208,0,3.734,0.358,4.579,1.072
			c0.846,0.715,1.267,1.705,1.267,2.972C75.56,36.527,75.09,37.543,74.147,38.209z"/>
	</g>
</g>
</svg>
