<?xml version="1.0" encoding="utf-8"?>
<!-- Generator: Adobe Illustrator 16.0.0, SVG Export Plug-In . SVG Version: 6.00 Build 0)  -->
<!DOCTYPE svg PUBLIC "-//W3C//DTD SVG 1.1//EN" "http://www.w3.org/Graphics/SVG/1.1/DTD/svg11.dtd">
<svg version="1.1" id="Layer_1" xmlns="http://www.w3.org/2000/svg" xmlns:xlink="http://www.w3.org/1999/xlink" x="0px" y="0px"
	 width="49.833px" height="51.167px" viewBox="0 0 49.833 51.167" enable-background="new 0 0 49.833 51.167" xml:space="preserve">
<g>
	<rect x="18.461" y="4.86" fill="#C0BEDF" width="21.907" height="42.654"/>
	<path fill="#F3F2F2" d="M43.54,24.047h-5.082c-1.326,0-2.402,1.077-2.402,2.404v0.264c0,1.332,1.076,2.402,2.409,2.402h5.075
		c1.334,0,2.41-1.077,2.41-2.402v-0.264C45.95,25.125,44.874,24.047,43.54,24.047L43.54,24.047z M43.54,24.047"/>
	<path fill="#F3F2F2" d="M43.547,18.05h-1.063V6.413c0-1.672-1.369-3.04-3.039-3.04H19.385c-1.67,0-3.04,1.368-3.04,3.04v8.35
		c-4.05,2.285-8.218,4.672-8.232,4.679C5.85,20.372,2.532,23.38,2.532,30.487c0,0.637,0.044,1.223,0.103,1.787
		c0.015,0.168,0.036,0.33,0.059,0.483c0.059,0.417,0.132,0.813,0.22,1.194C2.942,34.083,2.971,34.222,3,34.354
		c0.117,0.439,0.256,0.85,0.41,1.238c0.073,0.189,0.161,0.365,0.242,0.549c0.088,0.19,0.183,0.373,0.277,0.557
		c0.11,0.205,0.228,0.41,0.352,0.607c0.029,0.045,0.059,0.081,0.088,0.133c2.93,4.416,8.328,4.438,8.328,4.438h3.647v3.457
		c0,1.67,1.37,3.04,3.04,3.04h20.061c1.67,0,3.039-1.37,3.039-3.04v-4.211h0.462v-0.008h0.593c1.334,0,2.41-1.076,2.41-2.402v-0.264
		c0-1.325-1.076-2.402-2.41-2.402h-5.082c-1.326,0-2.402,1.077-2.402,2.402v0.271c0,1.326,1.076,2.402,2.409,2.402h1.904v1.626
		H18.461V20.92c1.1-0.703,2.117-1.369,2.703-1.824c2.944-2.278,5.734-4.086,6.115-5.733c0.491-2.132-1.149-3.935-3.991-2.454
		c-0.894,0.461-2.731,1.479-4.827,2.658V8.191h21.907v9.853h-1.312v0.007h-0.593c-1.325,0-2.409,1.075-2.409,2.401v0.265
		c0,1.333,1.084,2.401,2.402,2.401h5.09c1.326,0,2.402-1.076,2.402-2.401v-0.272C45.95,19.125,44.874,18.05,43.547,18.05
		L43.547,18.05z M29.412,43.817c0.843,0,1.523,0.674,1.523,1.516c0,0.843-0.681,1.523-1.523,1.523c-0.835,0-1.517-0.681-1.517-1.523
		C27.895,44.499,28.577,43.817,29.412,43.817L29.412,43.817z M32.627,6.301h-6.424c-0.197,0-0.366-0.168-0.366-0.365
		c0-0.206,0.169-0.373,0.366-0.373h6.424c0.197,0,0.365,0.167,0.365,0.373C32.993,6.133,32.825,6.301,32.627,6.301L32.627,6.301z
		 M32.627,6.301"/>
	<path fill="#F3F2F2" d="M43.54,30.047h-5.082c-1.318,0-2.402,1.076-2.402,2.402v0.271c0,1.325,1.076,2.402,2.402,2.402h5.082
		c1.334,0,2.402-1.077,2.41-2.402V32.45C45.95,31.124,44.874,30.047,43.54,30.047L43.54,30.047z M43.54,30.047"/>
</g>
</svg>
