<?xml version="1.0" encoding="utf-8"?>
<!-- Generator: Adobe Illustrator 16.0.0, SVG Export Plug-In . SVG Version: 6.00 Build 0)  -->
<!DOCTYPE svg PUBLIC "-//W3C//DTD SVG 1.1//EN" "http://www.w3.org/Graphics/SVG/1.1/DTD/svg11.dtd">
<svg version="1.1" id="Layer_1" xmlns="http://www.w3.org/2000/svg" xmlns:xlink="http://www.w3.org/1999/xlink" x="0px" y="0px"
	 width="52.5px" height="54.833px" viewBox="0 0 52.5 54.833" enable-background="new 0 0 52.5 54.833" xml:space="preserve">
<g>
	<circle fill="#F3F2F2" cx="25.548" cy="4.952" r="3.379"/>
	<g>
		<g>
			<g>
				<g>
					
						<line fill="none" stroke="#F3F2F2" stroke-width="0.75" stroke-linecap="round" stroke-miterlimit="10" x1="11.27" y1="11.967" x2="11.611" y2="12.261"/>
					
						<line fill="none" stroke="#F3F2F2" stroke-width="0.75" stroke-linecap="round" stroke-miterlimit="10" stroke-dasharray="0.9037,0.9037" x1="12.294" y1="12.852" x2="24.268" y2="23.184"/>
					
						<line fill="none" stroke="#F3F2F2" stroke-width="0.75" stroke-linecap="round" stroke-miterlimit="10" x1="24.61" y1="23.479" x2="24.951" y2="23.773"/>
				</g>
			</g>
			<g>
				<g>
					
						<line fill="none" stroke="#F3F2F2" stroke-width="0.75" stroke-linecap="round" stroke-miterlimit="10" x1="39.824" y1="11.967" x2="39.483" y2="12.261"/>
					
						<line fill="none" stroke="#F3F2F2" stroke-width="0.75" stroke-linecap="round" stroke-miterlimit="10" stroke-dasharray="0.9038,0.9038" x1="38.799" y1="12.852" x2="26.824" y2="23.184"/>
					
						<line fill="none" stroke="#F3F2F2" stroke-width="0.75" stroke-linecap="round" stroke-miterlimit="10" x1="26.482" y1="23.479" x2="26.142" y2="23.773"/>
				</g>
			</g>
		</g>
		
			<line fill="none" stroke="#F3F2F2" stroke-width="0.75" stroke-linecap="round" stroke-miterlimit="10" stroke-dasharray="0.9" x1="25.546" y1="2.614" x2="25.546" y2="25.228"/>
	</g>
	<g>
		<circle fill="#F3F2F2" cx="39.823" cy="11.967" r="3.379"/>
		<circle fill="#F3F2F2" cx="11.271" cy="11.967" r="3.379"/>
	</g>
	<circle fill="#C9C9CB" cx="25.277" cy="23.773" r="5.441"/>
	<g>
		<g>
			<defs>
				<rect id="SVGID_1_" x="19.835" y="21.224" width="20.439" height="31.702"/>
			</defs>
			<clipPath id="SVGID_2_">
				<use xlink:href="#SVGID_1_"  overflow="visible"/>
			</clipPath>
			<path clip-path="url(#SVGID_2_)" fill="#F3F2F2" d="M38.094,52.615c0.113-0.367,0.237-0.754,0.32-0.953
				c1.96-4.733,1.736-9.732,1.648-11.334c-0.059-1.081-0.165-1.995-0.77-2.719c-0.891-1.063-2.258-1.396-2.841-1.493
				c-0.372-0.933-0.939-1.544-1.688-1.825c-0.295-0.109-0.614-0.166-0.95-0.166c-0.563,0-1.067,0.156-1.408,0.292
				c-0.452-0.817-1.052-1.323-1.787-1.509c-0.204-0.051-0.418-0.078-0.636-0.078c-0.702,0-1.343,0.266-1.781,0.503
				c-0.11-0.755-0.506-6.859-0.741-10.206c-0.074-1.069-0.965-1.903-2.041-1.903c-1.147,0-2.081,0.927-2.086,2.073
				c-0.033,7.255-0.224,14.421-0.267,15.507c-0.705,0.32-1.933,0.747-2.478,1.488c-1.25,1.695-0.706,3.023-0.087,4.057
				c1.398,2.345,3.832,6.533,4.869,8.266H38.094z M38.094,52.615"/>
		</g>
	</g>
</g>
</svg>
