<?xml version="1.0" encoding="utf-8"?>
<!-- Generator: Adobe Illustrator 16.0.0, SVG Export Plug-In . SVG Version: 6.00 Build 0)  -->
<!DOCTYPE svg PUBLIC "-//W3C//DTD SVG 1.1//EN" "http://www.w3.org/Graphics/SVG/1.1/DTD/svg11.dtd">
<svg version="1.1" id="Layer_1" xmlns="http://www.w3.org/2000/svg" xmlns:xlink="http://www.w3.org/1999/xlink" x="0px" y="0px"
	 width="841.89px" height="1190.55px" viewBox="0 0 841.89 1190.55" enable-background="new 0 0 841.89 1190.55"
	 xml:space="preserve">
<rect width="841.89" height="1190.55"/>
<g>
	<rect x="123.795" y="325.191" fill="#C1BFE0" width="21.907" height="42.654"/>
	<path fill="#F3F3F3" d="M148.873,344.379h-5.082c-1.326,0-2.402,1.077-2.402,2.404v0.264c0,1.332,1.076,2.402,2.409,2.402h5.075
		c1.334,0,2.41-1.077,2.41-2.402v-0.264C151.283,345.456,150.207,344.379,148.873,344.379L148.873,344.379z M148.873,344.379"/>
	<path fill="#F3F3F3" d="M148.881,338.382h-1.063v-11.638c0-1.672-1.369-3.04-3.039-3.04h-20.061c-1.67,0-3.04,1.368-3.04,3.04v8.35
		c-4.05,2.285-8.218,4.672-8.232,4.679c-2.263,0.931-5.581,3.939-5.581,11.046c0,0.637,0.044,1.223,0.103,1.787
		c0.015,0.168,0.036,0.33,0.059,0.483c0.059,0.417,0.132,0.813,0.22,1.194c0.029,0.131,0.059,0.271,0.088,0.402
		c0.117,0.439,0.256,0.85,0.41,1.238c0.073,0.189,0.161,0.365,0.242,0.549c0.088,0.19,0.183,0.373,0.277,0.557
		c0.11,0.205,0.228,0.41,0.352,0.607c0.029,0.045,0.059,0.081,0.088,0.133c2.93,4.416,8.328,4.438,8.328,4.438h3.647v3.457
		c0,1.67,1.37,3.04,3.04,3.04h20.061c1.67,0,3.039-1.37,3.039-3.04v-4.211h0.462v-0.008h0.593c1.334,0,2.41-1.076,2.41-2.402v-0.264
		c0-1.325-1.076-2.402-2.41-2.402h-5.082c-1.326,0-2.402,1.077-2.402,2.402v0.271c0,1.326,1.076,2.402,2.409,2.402h1.904v1.626
		h-21.907v-21.827c1.1-0.703,2.117-1.369,2.703-1.824c2.944-2.278,5.734-4.086,6.115-5.733c0.491-2.132-1.149-3.935-3.991-2.454
		c-0.894,0.461-2.731,1.479-4.827,2.658v-5.376h21.907v9.853h-1.312v0.007h-0.593c-1.325,0-2.409,1.075-2.409,2.401v0.265
		c0,1.333,1.084,2.401,2.402,2.401h5.09c1.326,0,2.402-1.076,2.402-2.401v-0.272C151.283,339.457,150.207,338.382,148.881,338.382
		L148.881,338.382z M134.745,364.148c0.843,0,1.523,0.674,1.523,1.516c0,0.843-0.681,1.523-1.523,1.523
		c-0.835,0-1.517-0.681-1.517-1.523C133.229,364.83,133.91,364.148,134.745,364.148L134.745,364.148z M137.961,326.633h-6.424
		c-0.197,0-0.366-0.168-0.366-0.365c0-0.206,0.169-0.373,0.366-0.373h6.424c0.197,0,0.365,0.167,0.365,0.373
		C138.326,326.465,138.158,326.633,137.961,326.633L137.961,326.633z M137.961,326.633"/>
	<path fill="#F3F3F3" d="M148.873,350.379h-5.082c-1.318,0-2.402,1.076-2.402,2.402v0.271c0,1.325,1.076,2.402,2.402,2.402h5.082
		c1.334,0,2.402-1.077,2.41-2.402v-0.271C151.283,351.455,150.207,350.379,148.873,350.379L148.873,350.379z M148.873,350.379"/>
</g>
<g>
	<g>
		<defs>
			<rect id="SVGID_1_" x="227.696" y="324.115" width="33.984" height="44.178"/>
		</defs>
		<clipPath id="SVGID_2_">
			<use xlink:href="#SVGID_1_"  overflow="visible"/>
		</clipPath>
		<path clip-path="url(#SVGID_2_)" fill="#F3F3F3" d="M259.195,341.928h-0.859v-4.023c0-7.439-5.905-13.655-13.284-13.787
			c-0.202-0.004-0.605-0.004-0.806,0c-7.381,0.132-13.284,6.348-13.284,13.787v4.023h-0.859c-1.326,0-2.406,1.367-2.406,3.055
			v20.177c0,1.687,1.08,3.065,2.406,3.065h29.093c1.324,0,2.404-1.379,2.404-3.065v-20.177
			C261.6,343.295,260.52,341.928,259.195,341.928L259.195,341.928z M247.374,355.05v6.097c0,0.698-0.585,1.289-1.283,1.289h-2.886
			c-0.697,0-1.281-0.591-1.281-1.289v-6.097c-0.679-0.667-1.073-1.589-1.073-2.61c0-1.933,1.494-3.595,3.396-3.67
			c0.2-0.009,0.604-0.009,0.806,0c1.9,0.075,3.395,1.737,3.395,3.67C248.446,353.461,248.052,354.383,247.374,355.05L247.374,355.05
			z M252.671,341.928h-16.045v-4.023c0-4.432,3.602-8.096,8.021-8.096c4.421,0,8.023,3.664,8.023,8.096V341.928z M252.671,341.928"
			/>
	</g>
</g>
<g>
	<path fill-rule="evenodd" clip-rule="evenodd" fill="#F3F3F3" d="M342.893,332.642c-10.042,0-18.183,7.023-18.183,15.688
		c0,5.201,2.936,9.811,7.454,12.665l-2.562,6.477l6.275-4.665c2.158,0.779,4.528,1.21,7.015,1.21
		c10.041,0,18.182-7.023,18.182-15.687C361.074,339.666,352.934,332.642,342.893,332.642z"/>
	<path fill-rule="evenodd" clip-rule="evenodd" fill="#C1BFE0" d="M356.21,324.937c10.042,0,18.182,7.022,18.182,15.686
		c0,5.202-2.935,9.813-7.454,12.666l2.562,6.477l-6.275-4.666c-2.158,0.779-4.527,1.211-7.014,1.211
		c-10.043,0-18.183-7.023-18.183-15.688C338.027,331.959,346.167,324.937,356.21,324.937z"/>
	<g>
		<path fill-rule="evenodd" clip-rule="evenodd" fill="#FFFFFF" d="M365.941,343.947c1.662,0,3.016-1.354,3.016-3.016
			c0-1.66-1.354-3.016-3.016-3.016c-1.661,0-3.015,1.355-3.015,3.016C362.927,342.592,364.28,343.947,365.941,343.947z"/>
		<path fill-rule="evenodd" clip-rule="evenodd" fill="#FFFFFF" d="M356.21,343.947c1.661,0,3.017-1.354,3.017-3.016
			c0-1.66-1.355-3.016-3.017-3.016s-3.017,1.355-3.017,3.016C353.193,342.592,354.549,343.947,356.21,343.947z"/>
		<path fill-rule="evenodd" clip-rule="evenodd" fill="#FFFFFF" d="M346.478,343.947c1.661,0,3.016-1.354,3.016-3.016
			c0-1.66-1.354-3.016-3.016-3.016c-1.662,0-3.017,1.355-3.017,3.016C343.461,342.592,344.815,343.947,346.478,343.947z"/>
	</g>
</g>
<path fill="#F3F3F3" d="M455.369,323.704c-12.424,0-22.497,10.073-22.497,22.5c0,12.427,10.073,22.5,22.497,22.5
	c12.428,0,22.501-10.073,22.501-22.5C477.87,333.777,467.797,323.704,455.369,323.704z M458.781,360.957
	c0,0.597-0.207,1.103-0.626,1.52c-0.417,0.418-0.923,0.627-1.52,0.627h-2.147c-0.596,0-1.103-0.209-1.521-0.627
	c-0.417-0.417-0.626-0.923-0.626-1.52v-1.841c0.017-0.596,0.238-1.111,0.664-1.546c0.426-0.434,0.938-0.651,1.534-0.651h2.044
	c0.597,0,1.112,0.214,1.546,0.64c0.435,0.426,0.651,0.928,0.651,1.506V360.957z M457.784,352.251
	c-0.051,0.613-0.28,1.124-0.688,1.533c-0.411,0.408-0.896,0.613-1.457,0.613c-0.632,0-1.147-0.213-1.547-0.639
	c-0.4-0.427-0.619-0.929-0.651-1.507l-1.049-20.913c-0.034-0.58,0.168-1.082,0.603-1.508c0.433-0.425,0.948-0.639,1.545-0.639h2.146
	c0.598,0,1.112,0.226,1.547,0.677c0.435,0.451,0.635,0.958,0.602,1.521L457.784,352.251z"/>
<g>
	<path fill="#F3F3F3" d="M571.695,337.609c3.812,0,6.905-3.092,6.905-6.901c0-3.812-3.094-6.903-6.905-6.903
		c-3.811,0-6.903,3.092-6.903,6.903C564.792,334.519,567.885,337.609,571.695,337.609 M574.623,338.079h-5.855
		c-4.873,0-8.837,3.965-8.837,8.838v7.163l0.018,0.114l0.493,0.152c4.65,1.453,8.691,1.938,12.017,1.938
		c6.494,0,10.26-1.852,10.491-1.972l0.462-0.231h0.051v-7.164C583.462,342.044,579.497,338.079,574.623,338.079"/>
	<path fill="#F3F3F3" d="M560.092,353.618c3.058,0,5.539-2.479,5.539-5.536c0-3.06-2.481-5.538-5.539-5.538
		c-3.057,0-5.538,2.479-5.538,5.538C554.554,351.14,557.035,353.618,560.092,353.618 M562.439,353.995h-4.697
		c-3.91,0-7.09,3.182-7.09,7.09v5.748l0.014,0.092l0.396,0.123c3.731,1.165,6.973,1.555,9.643,1.555
		c5.209,0,8.231-1.486,8.417-1.582l0.37-0.187h0.04v-5.749C569.531,357.177,566.352,353.995,562.439,353.995"/>
	<path fill="#CACACB" d="M560.092,353.618c3.058,0,5.539-2.479,5.539-5.536c0-3.06-2.481-5.538-5.539-5.538
		c-3.057,0-5.538,2.479-5.538,5.538C554.554,351.14,557.035,353.618,560.092,353.618 M562.439,353.995h-4.697
		c-3.91,0-7.09,3.182-7.09,7.09v5.748l0.014,0.092l0.396,0.123c3.731,1.165,6.973,1.555,9.643,1.555
		c5.209,0,8.231-1.486,8.417-1.582l0.37-0.187h0.04v-5.749C569.531,357.177,566.352,353.995,562.439,353.995"/>
	<path fill="#CACACB" d="M583.358,353.618c3.058,0,5.538-2.479,5.538-5.536c0-3.06-2.48-5.538-5.538-5.538s-5.538,2.479-5.538,5.538
		C577.82,351.14,580.301,353.618,583.358,353.618 M585.706,353.995h-4.697c-3.911,0-7.09,3.182-7.09,7.09v5.748l0.014,0.092
		l0.396,0.123c3.731,1.165,6.973,1.555,9.643,1.555c5.209,0,8.231-1.486,8.417-1.582l0.371-0.187h0.039v-5.749
		C592.798,357.177,589.617,353.995,585.706,353.995"/>
</g>
<g>
	<circle fill="#F3F3F3" cx="681.027" cy="323.906" r="3.379"/>
	<g>
		<g>
			<g>
				<g>
					
						<line fill="none" stroke="#F3F3F3" stroke-width="0.75" stroke-linecap="round" stroke-miterlimit="10" x1="666.749" y1="330.921" x2="667.09" y2="331.215"/>
					
						<line fill="none" stroke="#F3F3F3" stroke-width="0.75" stroke-linecap="round" stroke-miterlimit="10" stroke-dasharray="0.9037,0.9037" x1="667.773" y1="331.805" x2="679.747" y2="342.138"/>
					
						<line fill="none" stroke="#F3F3F3" stroke-width="0.75" stroke-linecap="round" stroke-miterlimit="10" x1="680.089" y1="342.433" x2="680.43" y2="342.727"/>
				</g>
			</g>
			<g>
				<g>
					
						<line fill="none" stroke="#F3F3F3" stroke-width="0.75" stroke-linecap="round" stroke-miterlimit="10" x1="695.304" y1="330.921" x2="694.963" y2="331.215"/>
					
						<line fill="none" stroke="#F3F3F3" stroke-width="0.75" stroke-linecap="round" stroke-miterlimit="10" stroke-dasharray="0.9038,0.9038" x1="694.278" y1="331.805" x2="682.304" y2="342.138"/>
					
						<line fill="none" stroke="#F3F3F3" stroke-width="0.75" stroke-linecap="round" stroke-miterlimit="10" x1="681.962" y1="342.433" x2="681.621" y2="342.727"/>
				</g>
			</g>
		</g>
		
			<line fill="none" stroke="#F3F3F3" stroke-width="0.75" stroke-linecap="round" stroke-miterlimit="10" stroke-dasharray="0.9" x1="681.025" y1="321.567" x2="681.025" y2="344.182"/>
	</g>
	<g>
		<circle fill="#F3F3F3" cx="695.302" cy="330.921" r="3.379"/>
		<circle fill="#F3F3F3" cx="666.75" cy="330.921" r="3.379"/>
	</g>
	<circle fill="#CACACB" cx="680.756" cy="342.727" r="5.441"/>
	<g>
		<g>
			<defs>
				<rect id="SVGID_3_" x="675.314" y="340.177" width="20.439" height="31.703"/>
			</defs>
			<clipPath id="SVGID_4_">
				<use xlink:href="#SVGID_3_"  overflow="visible"/>
			</clipPath>
			<path clip-path="url(#SVGID_4_)" fill="#F3F3F3" d="M693.573,371.569c0.113-0.369,0.237-0.754,0.32-0.954
				c1.96-4.733,1.736-9.732,1.648-11.333c-0.059-1.082-0.165-1.996-0.77-2.719c-0.891-1.063-2.258-1.396-2.841-1.493
				c-0.372-0.933-0.939-1.544-1.688-1.825c-0.295-0.109-0.614-0.166-0.95-0.166c-0.563,0-1.067,0.156-1.408,0.292
				c-0.452-0.817-1.052-1.324-1.787-1.508c-0.204-0.051-0.418-0.078-0.636-0.078c-0.702,0-1.343,0.265-1.781,0.502
				c-0.11-0.755-0.506-6.859-0.741-10.206c-0.074-1.069-0.965-1.903-2.041-1.903c-1.147,0-2.081,0.927-2.086,2.073
				c-0.033,7.255-0.224,14.421-0.267,15.507c-0.705,0.321-1.933,0.747-2.478,1.488c-1.25,1.696-0.706,3.024-0.087,4.058
				c1.398,2.344,3.832,6.533,4.869,8.266H693.573z M693.573,371.569"/>
		</g>
	</g>
</g>
<g>
	<path fill="#448CCA" d="M166.252,124.597c0,0.748-0.251,1.422-0.754,2.022c-0.504,0.602-1.163,1.121-1.975,1.559
		c-0.813,0.439-1.722,0.813-2.729,1.122c-1.007,0.308-2.015,0.551-3.021,0.73c-1.008,0.179-1.958,0.308-2.851,0.39
		c-0.895,0.082-1.617,0.122-2.169,0.122c-2.079,0-4.037-0.301-5.871-0.901c-1.837-0.601-3.436-1.502-4.802-2.705
		c-1.364-1.202-2.436-2.681-3.216-4.434c-0.779-1.755-1.169-3.785-1.169-6.091c0-2.306,0.39-4.345,1.169-6.116
		c0.78-1.77,1.852-3.248,3.216-4.435c1.366-1.185,2.965-2.087,4.802-2.705c1.834-0.616,3.792-0.925,5.871-0.925
		c2.015,0,3.85,0.276,5.506,0.828c1.657,0.553,3.078,1.348,4.266,2.388c1.186,1.04,2.102,2.299,2.753,3.776
		c0.649,1.479,0.974,3.16,0.974,5.044c0,0.845-0.162,1.583-0.486,2.217c-0.326,0.633-0.764,1.153-1.316,1.559
		c-0.553,0.407-1.201,0.707-1.948,0.902c-0.748,0.195-1.544,0.293-2.39,0.293h-14.569c0.097,0.584,0.349,1.161,0.756,1.729
		c0.405,0.569,0.941,1.071,1.607,1.511c0.665,0.438,1.413,0.796,2.241,1.072c0.828,0.276,1.713,0.415,2.656,0.415
		c1.494,0,2.973-0.244,4.436-0.731c1.461-0.487,2.646-0.991,3.556-1.511c0.228-0.129,0.521-0.26,0.878-0.39
		c0.357-0.129,0.666-0.195,0.926-0.195c1.007,0,1.868,0.317,2.583,0.95C165.895,122.721,166.252,123.558,166.252,124.597z
		 M158.699,111.342c-0.358-0.584-0.828-1.071-1.413-1.462c-0.585-0.39-1.267-0.682-2.046-0.877
		c-0.781-0.195-1.578-0.292-2.389-0.292c-0.846,0-1.666,0.122-2.461,0.365c-0.797,0.244-1.519,0.569-2.169,0.975
		c-0.65,0.406-1.21,0.894-1.681,1.462c-0.471,0.569-0.805,1.178-0.999,1.828h13.692
		C159.234,112.593,159.057,111.927,158.699,111.342z"/>
	<path fill="#448CCA" d="M189.006,108.141c-0.358,0.475-0.763,0.827-1.218,1.055c-0.52,0.262-1.105,0.41-1.755,0.441
		c-1.169,0-2.192,0.163-3.069,0.487c-0.877,0.324-1.617,0.712-2.218,1.167c-0.602,0.454-1.056,0.956-1.364,1.507
		s-0.463,1.038-0.463,1.458v12.543c0,0.972-0.35,1.791-1.049,2.455c-0.697,0.664-1.502,0.997-2.411,0.997h-0.292
		c-0.977,0-1.797-0.333-2.461-0.999c-0.667-0.666-1-1.486-1-2.461v-20.808c0-0.975,0.333-1.795,1-2.461
		c0.664-0.665,1.484-0.999,2.461-0.999h0.243c0.323,0,0.673,0.074,1.048,0.221c0.373,0.147,0.715,0.343,1.022,0.589
		c0.31,0.246,0.562,0.507,0.756,0.785c0.194,0.279,0.308,0.565,0.341,0.859c0.845-0.752,1.738-1.381,2.682-1.888
		c0.941-0.507,2.11-0.761,3.508-0.761c0.194,0,0.421,0,0.682,0c0.26,0,0.487,0.017,0.682,0.048c0.943,0.066,1.746,0.418,2.412,1.056
		c0.667,0.638,1,1.431,1,2.378v0.344C189.542,107.005,189.362,107.667,189.006,108.141z"/>
	<path fill="#448CCA" d="M210.253,108.141c-0.358,0.475-0.764,0.827-1.219,1.055c-0.52,0.262-1.104,0.41-1.755,0.441
		c-1.169,0-2.192,0.163-3.069,0.487c-0.877,0.324-1.617,0.712-2.218,1.167c-0.602,0.454-1.056,0.956-1.364,1.507
		s-0.463,1.038-0.463,1.458v12.543c0,0.972-0.35,1.791-1.049,2.455c-0.697,0.664-1.502,0.997-2.41,0.997h-0.293
		c-0.976,0-1.796-0.333-2.461-0.999c-0.666-0.666-0.999-1.486-0.999-2.461v-20.808c0-0.975,0.333-1.795,0.999-2.461
		c0.665-0.665,1.485-0.999,2.461-0.999h0.244c0.324,0,0.673,0.074,1.047,0.221c0.373,0.147,0.715,0.343,1.023,0.589
		s0.561,0.507,0.755,0.785c0.194,0.279,0.309,0.565,0.341,0.859c0.845-0.752,1.738-1.381,2.682-1.888
		c0.941-0.507,2.11-0.761,3.508-0.761c0.195,0,0.421,0,0.682,0c0.26,0,0.487,0.017,0.682,0.048c0.943,0.066,1.747,0.418,2.413,1.056
		c0.667,0.638,1,1.431,1,2.378v0.344C210.789,107.005,210.609,107.667,210.253,108.141z"/>
	<path fill="#448CCA" d="M240.952,106.031c0,0.228-0.016,0.446-0.049,0.657c-0.033,0.212-0.113,0.447-0.244,0.707l-11.354,24.073
		c-0.877,1.851-1.859,3.411-2.949,4.678c-1.089,1.267-2.184,2.298-3.289,3.094c-1.104,0.796-2.177,1.365-3.215,1.706
		c-1.041,0.341-1.949,0.511-2.73,0.511c-0.52,0-1.047-0.098-1.582-0.292c-0.537-0.195-1.018-0.462-1.438-0.804
		c-0.423-0.341-0.771-0.747-1.048-1.218c-0.277-0.471-0.414-0.999-0.414-1.583c0-0.52,0.113-0.95,0.342-1.292
		c0.227-0.341,0.519-0.633,0.877-0.877c0.357-0.244,0.738-0.431,1.145-0.56c0.406-0.13,0.787-0.228,1.145-0.292
		c0.098-0.033,0.398-0.122,0.902-0.269c0.503-0.146,1.08-0.406,1.73-0.779c0.648-0.374,1.322-0.877,2.022-1.511
		c0.698-0.633,1.306-1.438,1.826-2.412c-0.356-0.162-0.666-0.438-0.926-0.828c-0.261-0.39-0.472-0.731-0.634-1.023l-9.502-20.32
		c-0.129-0.26-0.211-0.503-0.244-0.731c-0.031-0.227-0.049-0.438-0.049-0.633c0-0.975,0.334-1.754,1-2.34
		c0.664-0.584,1.389-0.877,2.168-0.877h0.585c1.624,0,2.761,0.699,3.411,2.096l7.603,16.373c1.267-2.761,2.559-5.498,3.874-8.211
		c1.315-2.712,2.607-5.433,3.873-8.162c0.324-0.682,0.78-1.201,1.365-1.56c0.584-0.357,1.25-0.536,1.998-0.536h0.634
		c0.845,0,1.584,0.301,2.218,0.902C240.636,104.317,240.952,105.089,240.952,106.031z"/>
	<g>
		<path fill="#FAFBFB" d="M84.56,101.838v-6.481c0-0.488,0.098-0.934,0.292-1.34c0.195-0.406,0.446-0.771,0.756-1.096
			c0.308-0.325,0.674-0.577,1.097-0.755c0.422-0.179,0.859-0.269,1.315-0.269h0.487c0.974,0,1.794,0.349,2.461,1.047
			c0.665,0.7,0.998,1.503,0.998,2.413v8.451L84.56,101.838z M91.966,116.292v10.592c0,0.91-0.333,1.714-0.998,2.413
			c-0.667,0.698-1.487,1.047-2.461,1.047H88.02c-0.91,0-1.714-0.341-2.412-1.023c-0.699-0.682-1.048-1.494-1.048-2.437v-12.202
			L91.966,116.292z M58.696,103.808v-8.451c0-0.909,0.333-1.713,0.998-2.413c0.667-0.698,1.487-1.047,2.461-1.047h0.487
			c0.456,0,0.894,0.089,1.315,0.269c0.423,0.178,0.789,0.43,1.097,0.755c0.31,0.325,0.561,0.69,0.756,1.096
			c0.194,0.407,0.292,0.852,0.292,1.34v6.481L58.696,103.808z M66.103,114.683v12.202c0,0.943-0.349,1.754-1.048,2.437
			c-0.698,0.682-1.502,1.023-2.412,1.023h-0.487c-0.974,0-1.794-0.35-2.461-1.047c-0.665-0.699-0.998-1.502-0.998-2.413v-10.592
			L66.103,114.683z"/>
		<path fill="#448CCA" d="M133.969,115.628c-0.292-0.877-0.675-1.681-1.146-2.412c-0.472-0.731-0.983-1.381-1.535-1.95
			c-0.553-0.568-1.072-1.047-1.56-1.438c0.293-0.357,0.61-0.762,0.951-1.218c0.341-0.454,0.657-0.975,0.949-1.56
			c0.292-0.584,0.536-1.234,0.731-1.949c0.194-0.714,0.292-1.494,0.292-2.339c0-1.884-0.325-3.509-0.975-4.873
			s-1.511-2.493-2.582-3.387c-1.071-0.893-2.299-1.56-3.68-1.998c-1.38-0.438-2.801-0.658-4.263-0.658h-17.64
			c-0.487,0-0.958,0.105-1.414,0.317c-0.454,0.211-0.852,0.487-1.193,0.828c-0.34,0.341-0.608,0.74-0.803,1.194
			c-0.195,0.456-0.293,0.926-0.293,1.414l-0.018,11.305h-6.392l-16.54-4.741c-0.501-0.241-1.012-0.338-1.532-0.326
			c-0.522-0.013-1.034,0.085-1.535,0.326l-16.563,4.655c-0.85,0.407-1.435,1.066-1.755,1.976c-0.319,0.91-0.275,1.79,0.131,2.639
			l0.211,0.44c0.197,0.41,0.467,0.767,0.811,1.071c0.344,0.304,0.729,0.523,1.155,0.661c0.426,0.138,0.865,0.208,1.314,0.208
			c0.451,0,0.896-0.105,1.336-0.316l14.895-3.855c0,0,15.778,4.171,16.23,4.171h8.223l-0.02,12.34c0,0.487,0.104,0.958,0.316,1.413
			c0.211,0.456,0.487,0.853,0.827,1.194c0.342,0.341,0.739,0.618,1.193,0.828c0.456,0.212,0.927,0.317,1.414,0.317h17.64
			c1.883,0,3.63-0.244,5.237-0.731s3.005-1.21,4.192-2.169c1.184-0.958,2.118-2.151,2.801-3.581s1.023-3.086,1.023-4.971
			C134.407,117.448,134.262,116.505,133.969,115.628z M107.167,99.304h13.986c1.429,0,2.477,0.317,3.143,0.95
			c0.665,0.633,0.998,1.471,0.998,2.51c0,1.235-0.349,2.233-1.047,2.997c-0.698,0.764-1.729,1.146-3.094,1.146h-13.986V99.304z
			 M125.587,121.5c-0.942,0.666-2.421,0.999-4.434,0.999h-13.986v-8.089h13.986c2.208,0,3.734,0.358,4.579,1.072
			c0.846,0.715,1.267,1.705,1.267,2.972C126.999,119.819,126.529,120.835,125.587,121.5z"/>
	</g>
</g>
<g>
	<g>
		<path fill="#FAFBFB" d="M341.007,159.199c-0.235,0.251-0.532,0.377-0.889,0.377h-0.244c-0.325,0-0.613-0.126-0.865-0.377
			c-0.252-0.252-0.378-0.54-0.378-0.865v-7.578h-11.135v7.578c0,0.325-0.122,0.613-0.365,0.865
			c-0.244,0.251-0.536,0.377-0.877,0.377h-0.244c-0.325,0-0.613-0.126-0.865-0.377c-0.252-0.252-0.378-0.54-0.378-0.865V141.57
			c0-0.341,0.126-0.633,0.378-0.877c0.251-0.244,0.54-0.365,0.865-0.365h0.244c0.341,0,0.634,0.122,0.877,0.365
			s0.365,0.536,0.365,0.877v6.457h11.135v-6.457c0-0.341,0.125-0.633,0.378-0.877c0.251-0.244,0.54-0.365,0.865-0.365h0.244
			c0.357,0,0.654,0.126,0.889,0.377c0.235,0.252,0.354,0.54,0.354,0.865v16.763C341.361,158.659,341.243,158.947,341.007,159.199z"
			/>
		<path fill="#FAFBFB" d="M359.269,152.754c0,0.91-0.155,1.787-0.463,2.631c-0.309,0.845-0.771,1.588-1.389,2.229
			c-0.617,0.642-1.401,1.154-2.351,1.535s-2.067,0.572-3.35,0.572c-1.284,0-2.4-0.191-3.35-0.572s-1.734-0.893-2.352-1.535
			c-0.617-0.642-1.08-1.385-1.389-2.229c-0.309-0.844-0.463-1.721-0.463-2.631c0-0.926,0.15-1.807,0.451-2.644
			c0.3-0.836,0.763-1.575,1.389-2.217c0.625-0.641,1.409-1.153,2.352-1.535c0.942-0.382,2.063-0.573,3.362-0.573
			c1.299,0,2.424,0.191,3.375,0.573s1.733,0.889,2.351,1.522c0.617,0.634,1.076,1.373,1.376,2.217
			C359.119,150.943,359.269,151.828,359.269,152.754z M356.54,152.754c0-0.601-0.098-1.169-0.292-1.706s-0.487-1.007-0.877-1.413
			c-0.39-0.406-0.89-0.731-1.499-0.975c-0.609-0.244-1.328-0.365-2.156-0.365c-0.829,0-1.547,0.122-2.156,0.365
			c-0.609,0.244-1.109,0.569-1.499,0.975c-0.39,0.406-0.682,0.881-0.877,1.425c-0.195,0.544-0.292,1.109-0.292,1.693
			c0,0.585,0.097,1.145,0.292,1.681c0.195,0.536,0.491,1.011,0.89,1.425c0.398,0.415,0.897,0.743,1.499,0.987
			c0.601,0.244,1.315,0.366,2.144,0.366c0.828,0,1.543-0.122,2.144-0.366c0.601-0.244,1.1-0.572,1.499-0.987
			c0.397-0.414,0.694-0.889,0.889-1.425S356.54,153.339,356.54,152.754z"/>
		<path fill="#FAFBFB" d="M382.293,159.223c-0.244,0.235-0.536,0.354-0.877,0.354h-0.146c-0.341,0-0.633-0.122-0.877-0.365
			c-0.244-0.244-0.366-0.536-0.366-0.877v-6.725c0-0.309-0.028-0.633-0.085-0.975c-0.057-0.341-0.187-0.658-0.39-0.95
			s-0.5-0.532-0.889-0.719c-0.39-0.187-0.918-0.28-1.584-0.28c-0.406,0-0.812,0.098-1.218,0.292
			c-0.406,0.195-0.776,0.447-1.108,0.755c-0.333,0.309-0.605,0.646-0.816,1.011c-0.211,0.366-0.316,0.728-0.316,1.084v6.505
			c0,0.357-0.122,0.654-0.366,0.889c-0.244,0.235-0.536,0.354-0.877,0.354h-0.146c-0.341,0-0.633-0.122-0.877-0.365
			c-0.244-0.244-0.365-0.536-0.365-0.877v-6.919c0-0.309-0.029-0.629-0.085-0.962c-0.057-0.333-0.187-0.634-0.39-0.902
			c-0.204-0.268-0.5-0.487-0.89-0.658c-0.39-0.17-0.918-0.256-1.583-0.256c-0.455,0-0.894,0.102-1.316,0.305
			s-0.792,0.463-1.108,0.78c-0.317,0.316-0.569,0.662-0.755,1.035c-0.187,0.374-0.28,0.74-0.28,1.097v6.481
			c0,0.341-0.126,0.634-0.377,0.877c-0.252,0.243-0.541,0.365-0.865,0.365h-0.146c-0.341,0-0.634-0.122-0.877-0.365
			c-0.244-0.244-0.365-0.536-0.365-0.877v-10.891c0-0.357,0.122-0.654,0.365-0.889s0.536-0.354,0.877-0.354h0.146
			c0.341,0,0.634,0.122,0.877,0.366s0.365,0.536,0.365,0.877v0.561c0.471-0.585,0.97-1.056,1.499-1.413
			c0.527-0.357,1.189-0.536,1.986-0.536c0.779,0,1.421,0.053,1.925,0.158c0.503,0.106,0.93,0.248,1.279,0.426
			c0.349,0.179,0.638,0.382,0.865,0.609c0.227,0.228,0.446,0.463,0.658,0.707c0.471-0.585,1.068-1.048,1.791-1.389
			c0.723-0.341,1.482-0.512,2.278-0.512c1.202,0,2.181,0.142,2.936,0.426c0.755,0.285,1.344,0.678,1.767,1.182
			c0.422,0.504,0.71,1.093,0.865,1.767c0.154,0.674,0.231,1.401,0.231,2.181v6.725C382.659,158.691,382.537,158.988,382.293,159.223
			z"/>
		<path fill="#FAFBFB" d="M398.909,156.92c0,0.503-0.264,0.93-0.791,1.279c-0.529,0.349-1.154,0.638-1.877,0.865
			c-0.723,0.228-1.453,0.394-2.193,0.5c-0.738,0.105-1.318,0.158-1.74,0.158c-1.041,0-2.012-0.15-2.912-0.451
			c-0.902-0.3-1.689-0.743-2.364-1.328c-0.674-0.585-1.206-1.312-1.596-2.181c-0.39-0.869-0.585-1.872-0.585-3.009
			c0-1.137,0.195-2.14,0.585-3.009c0.39-0.869,0.921-1.596,1.596-2.181c0.674-0.585,1.461-1.027,2.364-1.328
			c0.9-0.3,1.871-0.451,2.912-0.451c0.99,0,1.891,0.134,2.703,0.402s1.508,0.65,2.084,1.146s1.023,1.104,1.34,1.827
			c0.316,0.723,0.475,1.539,0.475,2.449c0,0.731-0.26,1.324-0.779,1.779s-1.145,0.682-1.877,0.682h-8.697
			c0.275,1.023,0.848,1.815,1.717,2.375s1.889,0.84,3.059,0.84c0.439,0,0.877-0.044,1.316-0.134
			c0.438-0.089,0.855-0.203,1.254-0.341c0.398-0.138,0.771-0.292,1.121-0.463c0.35-0.17,0.646-0.329,0.889-0.475
			c0.211-0.13,0.432-0.195,0.658-0.195c0.373,0,0.689,0.114,0.951,0.341C398.78,156.247,398.909,156.547,398.909,156.92z
			 M396.083,150.878c-0.016-0.487-0.143-0.901-0.377-1.243c-0.236-0.341-0.537-0.617-0.902-0.829
			c-0.365-0.21-0.768-0.361-1.205-0.451c-0.439-0.089-0.854-0.134-1.244-0.134c-0.584,0-1.137,0.082-1.656,0.244
			c-0.52,0.163-0.99,0.398-1.412,0.707c-0.424,0.309-0.781,0.674-1.072,1.096c-0.293,0.423-0.504,0.894-0.634,1.414h7.968
			c0.242,0,0.393-0.073,0.449-0.219C396.056,151.316,396.083,151.122,396.083,150.878z"/>
		<path fill="#FAFBFB" d="M342.092,178.167c0,0.91-0.167,1.709-0.5,2.4c-0.333,0.69-0.788,1.267-1.364,1.73
			c-0.577,0.463-1.259,0.813-2.047,1.047c-0.788,0.236-1.645,0.354-2.57,0.354h-9.454c-0.374,0-0.699-0.138-0.975-0.414
			c-0.276-0.276-0.415-0.601-0.415-0.975l0.024-16.251c0-0.374,0.134-0.698,0.402-0.975c0.268-0.276,0.588-0.414,0.962-0.414h9.454
			c0.698,0,1.38,0.102,2.046,0.304c0.666,0.204,1.259,0.52,1.779,0.95c0.52,0.431,0.938,0.971,1.255,1.621
			c0.316,0.65,0.475,1.421,0.475,2.314c0,0.52-0.057,0.979-0.171,1.376c-0.114,0.398-0.252,0.752-0.414,1.06
			c-0.163,0.309-0.345,0.577-0.548,0.804s-0.386,0.422-0.548,0.584c0.259,0.13,0.544,0.321,0.853,0.573
			c0.309,0.252,0.593,0.569,0.853,0.95c0.259,0.382,0.475,0.82,0.646,1.316S342.092,177.566,342.092,178.167z M338.437,169.858
			c0-0.763-0.228-1.356-0.682-1.778c-0.455-0.422-1.169-0.634-2.144-0.634h-8.114v5.214h8.114c0.942,0,1.648-0.252,2.12-0.755
			C338.201,171.401,338.437,170.719,338.437,169.858z M339.363,178.167c0-0.422-0.061-0.804-0.183-1.145
			c-0.122-0.341-0.329-0.634-0.622-0.877c-0.292-0.244-0.678-0.43-1.157-0.56s-1.076-0.195-1.791-0.195h-8.114v5.555h8.114
			c1.283,0,2.229-0.231,2.838-0.694C339.058,179.787,339.363,179.092,339.363,178.167z"/>
		<path fill="#FAFBFB" d="M357.978,181.285c0,0.503-0.264,0.93-0.792,1.279s-1.153,0.638-1.876,0.865
			c-0.723,0.228-1.454,0.394-2.193,0.5c-0.739,0.105-1.32,0.158-1.742,0.158c-1.04,0-2.01-0.15-2.912-0.451
			s-1.689-0.743-2.363-1.328c-0.674-0.585-1.206-1.312-1.596-2.181c-0.39-0.869-0.585-1.872-0.585-3.009
			c0-1.137,0.195-2.14,0.585-3.009c0.39-0.869,0.921-1.596,1.596-2.181c0.674-0.585,1.462-1.027,2.363-1.328
			c0.901-0.3,1.872-0.451,2.912-0.451c0.991,0,1.892,0.134,2.705,0.402c0.812,0.268,1.506,0.65,2.083,1.146s1.023,1.104,1.34,1.827
			c0.317,0.723,0.475,1.539,0.475,2.449c0,0.731-0.26,1.324-0.78,1.779c-0.52,0.455-1.145,0.682-1.876,0.682h-8.698
			c0.276,1.023,0.849,1.815,1.718,2.375c0.869,0.561,1.888,0.84,3.058,0.84c0.438,0,0.877-0.044,1.316-0.134
			c0.438-0.089,0.856-0.203,1.254-0.341c0.398-0.138,0.771-0.292,1.121-0.463c0.349-0.17,0.646-0.329,0.889-0.475
			c0.211-0.13,0.43-0.195,0.658-0.195c0.374,0,0.69,0.114,0.95,0.341S357.978,180.912,357.978,181.285z M355.151,175.243
			c-0.017-0.487-0.143-0.901-0.378-1.243c-0.236-0.341-0.536-0.617-0.901-0.829c-0.366-0.21-0.768-0.361-1.206-0.451
			c-0.438-0.089-0.853-0.134-1.243-0.134c-0.585,0-1.137,0.082-1.657,0.244c-0.52,0.163-0.991,0.398-1.413,0.707
			c-0.423,0.309-0.78,0.674-1.072,1.096c-0.292,0.423-0.503,0.894-0.633,1.414h7.967c0.244,0,0.394-0.073,0.451-0.219
			C355.123,175.681,355.151,175.486,355.151,175.243z"/>
		<path fill="#FAFBFB" d="M369.55,172.587c-0.13,0.163-0.276,0.284-0.438,0.365c-0.179,0.098-0.39,0.155-0.633,0.171
			c-0.715,0-1.344,0.105-1.888,0.316c-0.544,0.211-1.003,0.475-1.377,0.792s-0.658,0.654-0.853,1.011
			c-0.195,0.357-0.292,0.682-0.292,0.975v6.481c0,0.341-0.126,0.634-0.377,0.877c-0.252,0.243-0.541,0.365-0.865,0.365h-0.17
			c-0.341,0-0.634-0.122-0.877-0.365c-0.244-0.244-0.365-0.536-0.365-0.877v-10.891c0-0.357,0.122-0.654,0.365-0.889
			s0.536-0.354,0.877-0.354h0.146c0.341,0,0.634,0.122,0.877,0.366s0.365,0.536,0.365,0.877v0.561
			c0.552-0.682,1.1-1.173,1.645-1.474c0.544-0.3,1.247-0.451,2.108-0.451c0.113,0,0.227,0,0.341,0c0.113,0,0.235,0.008,0.366,0.024
			c0.357,0.033,0.653,0.163,0.889,0.39c0.235,0.228,0.353,0.512,0.353,0.853v0.17C369.745,172.189,369.68,172.425,369.55,172.587z"
			/>
		<path fill="#FAFBFB" d="M379.588,172.587c-0.13,0.163-0.276,0.284-0.438,0.365c-0.179,0.098-0.39,0.155-0.633,0.171
			c-0.715,0-1.344,0.105-1.888,0.316c-0.544,0.211-1.003,0.475-1.377,0.792s-0.658,0.654-0.853,1.011
			c-0.195,0.357-0.292,0.682-0.292,0.975v6.481c0,0.341-0.126,0.634-0.377,0.877c-0.252,0.243-0.541,0.365-0.865,0.365h-0.17
			c-0.341,0-0.634-0.122-0.877-0.365c-0.244-0.244-0.365-0.536-0.365-0.877v-10.891c0-0.357,0.122-0.654,0.365-0.889
			s0.536-0.354,0.877-0.354h0.146c0.341,0,0.634,0.122,0.877,0.366s0.365,0.536,0.365,0.877v0.561
			c0.552-0.682,1.1-1.173,1.645-1.474c0.544-0.3,1.247-0.451,2.108-0.451c0.113,0,0.227,0,0.341,0c0.113,0,0.235,0.008,0.366,0.024
			c0.357,0.033,0.653,0.163,0.889,0.39c0.235,0.228,0.353,0.512,0.353,0.853v0.17C379.783,172.189,379.718,172.425,379.588,172.587z
			"/>
		<path fill="#FAFBFB" d="M394.598,171.686c0,0.195-0.033,0.357-0.098,0.487l-5.848,12.377c-0.438,0.926-0.926,1.706-1.462,2.339
			c-0.536,0.633-1.072,1.141-1.608,1.523c-0.536,0.381-1.056,0.658-1.56,0.828s-0.95,0.256-1.34,0.256
			c-0.211,0-0.422-0.037-0.633-0.11c-0.211-0.073-0.402-0.174-0.573-0.304c-0.17-0.13-0.309-0.285-0.414-0.463
			c-0.106-0.179-0.159-0.382-0.159-0.609c0-0.374,0.122-0.666,0.366-0.877c0.244-0.211,0.487-0.317,0.731-0.317
			c0.081,0,0.264-0.021,0.548-0.061c0.284-0.041,0.625-0.158,1.023-0.353s0.82-0.5,1.267-0.914c0.447-0.415,0.865-0.987,1.255-1.718
			c-0.406-0.13-0.699-0.382-0.877-0.755l-5.092-10.867c-0.065-0.13-0.098-0.284-0.098-0.463c0-0.325,0.113-0.589,0.341-0.792
			c0.227-0.203,0.479-0.305,0.755-0.305h0.317c0.601,0,1.023,0.26,1.267,0.78l4.556,9.819l4.653-9.819
			c0.13-0.26,0.301-0.455,0.512-0.585c0.211-0.13,0.455-0.195,0.731-0.195h0.341c0.276,0,0.527,0.102,0.756,0.305
			C394.483,171.097,394.598,171.361,394.598,171.686z"/>
	</g>
	<g>
		<path fill="#FAFBFB" d="M351.01,103.255v-6.481c0-0.488,0.098-0.934,0.292-1.34c0.195-0.406,0.446-0.771,0.756-1.096
			c0.308-0.325,0.674-0.577,1.097-0.755c0.422-0.179,0.859-0.269,1.315-0.269h0.487c0.974,0,1.794,0.349,2.461,1.047
			c0.665,0.7,0.998,1.503,0.998,2.413v8.451L351.01,103.255z M358.416,117.71v10.592c0,0.91-0.333,1.714-0.998,2.413
			c-0.667,0.698-1.487,1.047-2.461,1.047h-0.487c-0.91,0-1.714-0.341-2.412-1.023c-0.699-0.682-1.048-1.494-1.048-2.437v-12.202
			L358.416,117.71z M325.146,105.226v-8.451c0-0.909,0.333-1.713,0.998-2.413c0.667-0.698,1.487-1.047,2.461-1.047h0.487
			c0.456,0,0.894,0.089,1.315,0.269c0.423,0.178,0.789,0.43,1.097,0.755c0.31,0.325,0.561,0.69,0.756,1.096
			c0.194,0.407,0.292,0.852,0.292,1.34v6.481L325.146,105.226z M332.553,116.101v12.202c0,0.943-0.349,1.754-1.048,2.437
			c-0.698,0.682-1.502,1.023-2.412,1.023h-0.487c-0.974,0-1.794-0.35-2.461-1.047c-0.665-0.699-0.998-1.502-0.998-2.413V117.71
			L332.553,116.101z"/>
		<path fill="#448CCA" d="M400.419,117.046c-0.292-0.877-0.675-1.681-1.146-2.412c-0.472-0.731-0.983-1.381-1.535-1.95
			c-0.553-0.568-1.072-1.047-1.56-1.438c0.293-0.357,0.61-0.762,0.951-1.218c0.341-0.454,0.657-0.975,0.949-1.56
			c0.292-0.584,0.536-1.234,0.731-1.949c0.194-0.714,0.292-1.494,0.292-2.339c0-1.884-0.325-3.509-0.975-4.873
			s-1.511-2.493-2.582-3.387c-1.071-0.893-2.299-1.56-3.68-1.998c-1.38-0.438-2.801-0.658-4.263-0.658h-17.64
			c-0.487,0-0.958,0.105-1.414,0.317c-0.454,0.211-0.852,0.487-1.193,0.828c-0.34,0.341-0.608,0.74-0.803,1.194
			c-0.195,0.456-0.293,0.926-0.293,1.414l-0.018,11.305h-6.392l-16.54-4.741c-0.501-0.241-1.012-0.338-1.532-0.326
			c-0.522-0.013-1.034,0.085-1.535,0.326l-16.563,4.655c-0.85,0.407-1.435,1.066-1.755,1.976c-0.319,0.91-0.275,1.79,0.131,2.639
			l0.211,0.44c0.197,0.41,0.467,0.767,0.811,1.071c0.344,0.304,0.729,0.523,1.155,0.661c0.426,0.138,0.865,0.208,1.314,0.208
			c0.451,0,0.896-0.105,1.336-0.316l14.895-3.855c0,0,15.778,4.171,16.23,4.171h8.223l-0.02,12.34c0,0.487,0.104,0.958,0.316,1.413
			c0.211,0.456,0.487,0.853,0.827,1.194c0.342,0.341,0.739,0.618,1.193,0.828c0.456,0.212,0.927,0.317,1.414,0.317h17.64
			c1.883,0,3.63-0.244,5.237-0.731s3.005-1.21,4.192-2.169c1.184-0.958,2.118-2.151,2.801-3.581s1.023-3.086,1.023-4.971
			C400.857,118.865,400.712,117.923,400.419,117.046z M373.617,100.721h13.986c1.429,0,2.477,0.317,3.143,0.95
			c0.665,0.633,0.998,1.471,0.998,2.51c0,1.235-0.349,2.233-1.047,2.997c-0.698,0.764-1.729,1.146-3.094,1.146h-13.986V100.721z
			 M392.037,122.918c-0.942,0.666-2.421,0.999-4.434,0.999h-13.986v-8.089h13.986c2.208,0,3.734,0.358,4.579,1.072
			c0.846,0.715,1.267,1.705,1.267,2.972C393.449,121.237,392.979,122.252,392.037,122.918z"/>
	</g>
</g>
<g>
	<g>
		<path fill="#FAFBFB" d="M578.947,109.948c-0.206,0.22-0.467,0.332-0.778,0.332h-0.214c-0.286,0-0.538-0.111-0.758-0.332
			c-0.221-0.22-0.332-0.474-0.332-0.758v-6.644h-9.762v6.644c0,0.284-0.107,0.538-0.319,0.758c-0.214,0.22-0.473,0.332-0.77,0.332
			H565.8c-0.284,0-0.537-0.111-0.757-0.332c-0.222-0.22-0.331-0.474-0.331-0.758V94.493c0-0.299,0.109-0.555,0.331-0.769
			c0.22-0.214,0.473-0.32,0.757-0.32h0.215c0.297,0,0.556,0.106,0.77,0.32c0.212,0.214,0.319,0.47,0.319,0.769v5.661h9.762v-5.661
			c0-0.299,0.111-0.555,0.332-0.769c0.22-0.214,0.472-0.32,0.758-0.32h0.214c0.312,0,0.572,0.11,0.778,0.331
			c0.207,0.222,0.31,0.475,0.31,0.759v14.697C579.257,109.474,579.154,109.728,578.947,109.948z"/>
		<path fill="#FAFBFB" d="M594.958,104.298c0,0.797-0.137,1.566-0.406,2.307c-0.271,0.741-0.677,1.393-1.217,1.955
			c-0.543,0.563-1.229,1.011-2.062,1.346c-0.833,0.334-1.813,0.502-2.938,0.502c-1.124,0-2.104-0.168-2.938-0.502
			c-0.832-0.335-1.52-0.784-2.06-1.346c-0.542-0.562-0.947-1.214-1.218-1.955c-0.271-0.74-0.406-1.51-0.406-2.307
			c0-0.812,0.131-1.584,0.396-2.317c0.263-0.733,0.668-1.382,1.216-1.945c0.548-0.562,1.235-1.01,2.062-1.345
			c0.825-0.334,1.809-0.502,2.947-0.502c1.14,0,2.126,0.168,2.958,0.502c0.834,0.335,1.521,0.78,2.063,1.335
			c0.542,0.555,0.944,1.203,1.207,1.943C594.826,102.71,594.958,103.486,594.958,104.298z M592.564,104.298
			c0-0.527-0.085-1.025-0.256-1.496c-0.171-0.47-0.427-0.883-0.769-1.239s-0.778-0.641-1.314-0.854
			c-0.533-0.214-1.164-0.321-1.891-0.321c-0.726,0-1.355,0.106-1.89,0.321c-0.534,0.213-0.971,0.498-1.313,0.854
			c-0.342,0.356-0.598,0.773-0.77,1.25c-0.17,0.476-0.256,0.971-0.256,1.484c0,0.512,0.086,1.004,0.256,1.474
			c0.172,0.47,0.431,0.887,0.78,1.25c0.349,0.364,0.787,0.652,1.313,0.865c0.528,0.214,1.154,0.321,1.88,0.321
			c0.727,0,1.354-0.106,1.88-0.321c0.528-0.213,0.965-0.501,1.313-0.865c0.35-0.363,0.609-0.78,0.78-1.25
			S592.564,104.81,592.564,104.298z"/>
		<path fill="#FAFBFB" d="M615.144,109.969c-0.214,0.206-0.47,0.311-0.769,0.311h-0.13c-0.298,0-0.554-0.108-0.769-0.32
			c-0.212-0.214-0.32-0.471-0.32-0.769v-5.896c0-0.271-0.024-0.555-0.074-0.854c-0.049-0.3-0.164-0.577-0.342-0.833
			c-0.179-0.257-0.438-0.466-0.78-0.631c-0.341-0.163-0.804-0.245-1.389-0.245c-0.354,0-0.711,0.085-1.066,0.256
			c-0.356,0.171-0.68,0.392-0.973,0.663c-0.292,0.27-0.531,0.565-0.715,0.886c-0.186,0.32-0.278,0.638-0.278,0.951v5.704
			c0,0.313-0.106,0.573-0.32,0.779c-0.213,0.206-0.47,0.311-0.769,0.311h-0.129c-0.298,0-0.556-0.108-0.769-0.32
			c-0.214-0.214-0.321-0.471-0.321-0.769v-6.067c0-0.271-0.024-0.552-0.074-0.844c-0.051-0.292-0.164-0.555-0.342-0.791
			c-0.179-0.234-0.438-0.426-0.779-0.576c-0.342-0.149-0.805-0.224-1.389-0.224c-0.398,0-0.782,0.088-1.153,0.267
			c-0.37,0.178-0.695,0.406-0.973,0.684s-0.498,0.581-0.662,0.908c-0.163,0.328-0.246,0.648-0.246,0.961v5.682
			c0,0.298-0.109,0.555-0.33,0.769c-0.222,0.212-0.474,0.32-0.759,0.32h-0.128c-0.299,0-0.556-0.108-0.769-0.32
			c-0.214-0.214-0.32-0.471-0.32-0.769v-9.549c0-0.313,0.106-0.573,0.32-0.78c0.213-0.206,0.47-0.31,0.769-0.31h0.128
			c0.3,0,0.557,0.107,0.77,0.32c0.213,0.214,0.319,0.47,0.319,0.769v0.491c0.414-0.512,0.852-0.925,1.314-1.238
			c0.462-0.313,1.043-0.47,1.74-0.47c0.685,0,1.246,0.046,1.688,0.139c0.44,0.093,0.815,0.217,1.122,0.374
			c0.306,0.157,0.559,0.334,0.757,0.534c0.2,0.2,0.392,0.406,0.577,0.62c0.412-0.513,0.937-0.919,1.57-1.218
			c0.632-0.299,1.3-0.449,1.996-0.449c1.054,0,1.914,0.125,2.575,0.374c0.662,0.25,1.178,0.596,1.549,1.036
			c0.37,0.442,0.623,0.958,0.758,1.549c0.136,0.591,0.202,1.228,0.202,1.912v5.896C615.463,109.502,615.356,109.763,615.144,109.969
			z"/>
		<path fill="#FAFBFB" d="M629.711,107.95c0,0.442-0.231,0.816-0.694,1.122c-0.463,0.307-1.012,0.56-1.644,0.758
			c-0.635,0.2-1.275,0.345-1.923,0.438c-0.649,0.093-1.158,0.139-1.527,0.139c-0.912,0-1.763-0.133-2.553-0.396
			c-0.791-0.263-1.481-0.652-2.072-1.164c-0.592-0.513-1.057-1.15-1.399-1.912c-0.341-0.761-0.513-1.641-0.513-2.638
			s0.172-1.876,0.513-2.638c0.343-0.762,0.808-1.399,1.399-1.911c0.591-0.513,1.281-0.901,2.072-1.165
			c0.79-0.264,1.641-0.396,2.553-0.396c0.867,0,1.658,0.117,2.371,0.352c0.712,0.236,1.32,0.57,1.827,1.004
			c0.505,0.434,0.896,0.969,1.173,1.602c0.277,0.634,0.417,1.35,0.417,2.147c0,0.641-0.228,1.16-0.683,1.559
			c-0.456,0.399-1.004,0.598-1.646,0.598h-7.626c0.242,0.898,0.744,1.592,1.507,2.083c0.761,0.491,1.654,0.737,2.679,0.737
			c0.387,0,0.771-0.039,1.155-0.117c0.385-0.078,0.751-0.178,1.1-0.299c0.35-0.121,0.677-0.257,0.983-0.406
			c0.305-0.149,0.565-0.289,0.777-0.416c0.187-0.114,0.379-0.171,0.578-0.171c0.327,0,0.605,0.1,0.833,0.299
			C629.598,107.36,629.711,107.623,629.711,107.95z M627.233,102.653c-0.015-0.427-0.124-0.791-0.331-1.089
			c-0.206-0.299-0.471-0.542-0.791-0.726c-0.319-0.184-0.673-0.317-1.058-0.395c-0.383-0.079-0.746-0.117-1.088-0.117
			c-0.513,0-0.998,0.07-1.454,0.213c-0.455,0.143-0.867,0.349-1.238,0.619c-0.369,0.271-0.684,0.591-0.94,0.961
			c-0.256,0.37-0.44,0.783-0.555,1.239h6.984c0.215,0,0.347-0.064,0.396-0.192C627.208,103.037,627.233,102.867,627.233,102.653z"/>
		<path fill="#FAFBFB" d="M579.898,126.577c0,0.798-0.146,1.5-0.438,2.104c-0.291,0.605-0.69,1.111-1.195,1.516
			c-0.505,0.406-1.104,0.713-1.793,0.918c-0.692,0.207-1.443,0.311-2.255,0.311h-8.288c-0.328,0-0.612-0.121-0.854-0.364
			c-0.243-0.241-0.362-0.527-0.362-0.854l0.02-14.248c0-0.328,0.119-0.612,0.354-0.854c0.234-0.242,0.516-0.364,0.844-0.364h8.288
			c0.611,0,1.211,0.089,1.795,0.268c0.583,0.178,1.103,0.456,1.559,0.833c0.455,0.377,0.822,0.851,1.1,1.42s0.417,1.247,0.417,2.029
			c0,0.456-0.05,0.858-0.149,1.207c-0.1,0.35-0.221,0.659-0.364,0.929c-0.142,0.271-0.302,0.505-0.479,0.705
			c-0.178,0.199-0.338,0.37-0.481,0.513c0.228,0.114,0.477,0.281,0.749,0.501c0.269,0.221,0.519,0.499,0.747,0.833
			s0.417,0.719,0.566,1.154C579.824,125.57,579.898,126.05,579.898,126.577z M576.694,119.293c0-0.669-0.199-1.188-0.598-1.56
			c-0.399-0.37-1.025-0.555-1.88-0.555h-7.113v4.571h7.113c0.825,0,1.445-0.22,1.858-0.663
			C576.487,120.646,576.694,120.048,576.694,119.293z M577.507,126.577c0-0.37-0.054-0.705-0.159-1.003
			c-0.108-0.299-0.29-0.555-0.546-0.77c-0.258-0.213-0.596-0.376-1.015-0.491c-0.421-0.113-0.943-0.17-1.57-0.17h-7.113v4.87h7.113
			c1.125,0,1.955-0.203,2.489-0.608C577.239,127.997,577.507,127.39,577.507,126.577z"/>
		<path fill="#FAFBFB" d="M593.826,129.311c0,0.442-0.231,0.816-0.693,1.122c-0.464,0.307-1.012,0.559-1.646,0.758
			c-0.633,0.2-1.273,0.345-1.922,0.438c-0.648,0.092-1.157,0.139-1.527,0.139c-0.912,0-1.763-0.132-2.553-0.396
			c-0.79-0.263-1.48-0.651-2.072-1.164c-0.59-0.513-1.058-1.15-1.398-1.912c-0.343-0.761-0.512-1.641-0.512-2.638
			c0-0.997,0.169-1.876,0.512-2.639c0.341-0.761,0.809-1.399,1.398-1.911c0.592-0.513,1.282-0.9,2.072-1.164
			s1.641-0.395,2.553-0.395c0.868,0,1.658,0.117,2.371,0.353c0.712,0.234,1.32,0.569,1.827,1.003
			c0.505,0.435,0.897,0.969,1.173,1.602c0.279,0.634,0.418,1.35,0.418,2.147c0,0.641-0.229,1.161-0.684,1.559
			c-0.455,0.399-1.005,0.598-1.645,0.598h-7.626c0.241,0.897,0.743,1.591,1.506,2.083c0.762,0.49,1.655,0.736,2.681,0.736
			c0.384,0,0.77-0.039,1.153-0.117c0.384-0.078,0.751-0.178,1.101-0.299c0.349-0.121,0.675-0.257,0.983-0.407
			c0.306-0.149,0.564-0.288,0.778-0.416c0.185-0.113,0.377-0.171,0.577-0.171c0.328,0,0.604,0.1,0.834,0.299
			C593.711,128.721,593.826,128.983,593.826,129.311z M591.348,124.014c-0.015-0.427-0.125-0.791-0.331-1.089
			s-0.469-0.542-0.791-0.726c-0.319-0.185-0.673-0.317-1.056-0.395c-0.385-0.079-0.747-0.118-1.09-0.118
			c-0.514,0-0.997,0.071-1.452,0.214s-0.869,0.349-1.24,0.619c-0.369,0.271-0.684,0.591-0.938,0.962
			c-0.257,0.37-0.442,0.782-0.556,1.238h6.983c0.215,0,0.346-0.064,0.396-0.192C591.322,124.398,591.348,124.228,591.348,124.014z"
			/>
		<path fill="#FAFBFB" d="M603.972,121.686c-0.113,0.142-0.241,0.249-0.384,0.32c-0.157,0.086-0.343,0.136-0.555,0.15
			c-0.628,0-1.18,0.093-1.655,0.278c-0.478,0.186-0.88,0.417-1.208,0.694c-0.328,0.278-0.576,0.573-0.749,0.886
			c-0.169,0.313-0.255,0.598-0.255,0.854v5.683c0,0.299-0.11,0.555-0.331,0.769c-0.22,0.213-0.473,0.32-0.759,0.32h-0.148
			c-0.3,0-0.556-0.107-0.771-0.32c-0.212-0.214-0.319-0.47-0.319-0.769v-9.549c0-0.313,0.107-0.574,0.319-0.78
			c0.215-0.207,0.471-0.31,0.771-0.31h0.128c0.299,0,0.557,0.107,0.769,0.321c0.214,0.213,0.319,0.47,0.319,0.769v0.491
			c0.486-0.598,0.966-1.028,1.443-1.292c0.477-0.263,1.093-0.395,1.848-0.395c0.101,0,0.199,0,0.299,0s0.206,0.007,0.321,0.021
			c0.313,0.028,0.572,0.142,0.778,0.341s0.312,0.449,0.312,0.748v0.148C604.145,121.336,604.086,121.543,603.972,121.686z"/>
		<path fill="#FAFBFB" d="M612.772,121.686c-0.113,0.142-0.241,0.249-0.384,0.32c-0.156,0.086-0.343,0.136-0.555,0.15
			c-0.627,0-1.18,0.093-1.656,0.278c-0.477,0.186-0.879,0.417-1.206,0.694c-0.329,0.278-0.577,0.573-0.749,0.886
			c-0.169,0.313-0.255,0.598-0.255,0.854v5.683c0,0.299-0.11,0.555-0.332,0.769c-0.221,0.213-0.473,0.32-0.759,0.32h-0.149
			c-0.3,0-0.555-0.107-0.77-0.32c-0.212-0.214-0.319-0.47-0.319-0.769v-9.549c0-0.313,0.107-0.574,0.319-0.78
			c0.215-0.207,0.47-0.31,0.77-0.31h0.129c0.3,0,0.556,0.107,0.769,0.321s0.319,0.47,0.319,0.769v0.491
			c0.484-0.598,0.966-1.028,1.443-1.292c0.476-0.263,1.093-0.395,1.848-0.395c0.099,0,0.199,0,0.299,0s0.206,0.007,0.32,0.021
			c0.313,0.028,0.573,0.142,0.779,0.341s0.312,0.449,0.312,0.748v0.148C612.945,121.336,612.887,121.543,612.772,121.686z"/>
		<path fill="#FAFBFB" d="M625.932,120.895c0,0.17-0.03,0.313-0.086,0.427l-5.126,10.851c-0.386,0.812-0.813,1.496-1.281,2.051
			c-0.472,0.556-0.941,1-1.411,1.335c-0.469,0.334-0.925,0.577-1.366,0.727c-0.442,0.149-0.833,0.224-1.175,0.224
			c-0.187,0-0.371-0.033-0.555-0.096c-0.187-0.065-0.354-0.154-0.503-0.268c-0.148-0.114-0.271-0.249-0.363-0.406
			s-0.14-0.334-0.14-0.534c0-0.329,0.107-0.584,0.321-0.77s0.428-0.277,0.641-0.277c0.07,0,0.231-0.019,0.481-0.054
			c0.247-0.035,0.548-0.138,0.896-0.31c0.35-0.171,0.719-0.438,1.11-0.801c0.393-0.363,0.759-0.865,1.101-1.506
			c-0.356-0.114-0.612-0.334-0.769-0.662l-4.464-9.527c-0.059-0.114-0.087-0.249-0.087-0.406c0-0.285,0.1-0.516,0.3-0.694
			c0.199-0.178,0.419-0.267,0.661-0.267h0.277c0.527,0,0.898,0.229,1.11,0.684l3.996,8.608l4.079-8.608
			c0.115-0.228,0.264-0.399,0.449-0.513c0.185-0.114,0.398-0.171,0.642-0.171h0.299c0.241,0,0.462,0.089,0.662,0.267
			C625.831,120.379,625.932,120.61,625.932,120.895z"/>
	</g>
	<g>
		<path fill="#FAFBFB" d="M508.191,103.389v-6.481c0-0.488,0.098-0.934,0.292-1.34c0.195-0.406,0.446-0.771,0.756-1.096
			c0.308-0.325,0.674-0.577,1.097-0.755c0.422-0.179,0.859-0.269,1.315-0.269h0.487c0.974,0,1.794,0.349,2.461,1.047
			c0.665,0.7,0.998,1.503,0.998,2.413v8.451L508.191,103.389z M515.598,117.844v10.592c0,0.91-0.333,1.714-0.998,2.413
			c-0.667,0.698-1.487,1.047-2.461,1.047h-0.487c-0.91,0-1.714-0.341-2.412-1.023c-0.699-0.682-1.048-1.494-1.048-2.437v-12.202
			L515.598,117.844z M482.328,105.359v-8.451c0-0.909,0.333-1.713,0.998-2.413c0.667-0.698,1.487-1.047,2.461-1.047h0.487
			c0.456,0,0.894,0.089,1.315,0.269c0.423,0.178,0.789,0.43,1.097,0.755c0.31,0.325,0.561,0.69,0.756,1.096
			c0.194,0.407,0.292,0.852,0.292,1.34v6.481L482.328,105.359z M489.734,116.234v12.202c0,0.943-0.349,1.754-1.048,2.437
			c-0.698,0.682-1.502,1.023-2.412,1.023h-0.487c-0.974,0-1.794-0.35-2.461-1.047c-0.665-0.699-0.998-1.502-0.998-2.413v-10.592
			L489.734,116.234z"/>
		<path fill="#448CCA" d="M557.601,117.18c-0.292-0.877-0.675-1.681-1.146-2.412c-0.472-0.731-0.983-1.381-1.535-1.95
			c-0.553-0.568-1.072-1.047-1.56-1.438c0.293-0.357,0.61-0.762,0.951-1.218c0.341-0.454,0.657-0.975,0.949-1.56
			c0.292-0.584,0.536-1.234,0.731-1.949c0.194-0.714,0.292-1.494,0.292-2.339c0-1.884-0.325-3.509-0.975-4.873
			s-1.511-2.493-2.582-3.387c-1.071-0.893-2.299-1.56-3.68-1.998c-1.38-0.438-2.801-0.658-4.263-0.658h-17.64
			c-0.487,0-0.958,0.105-1.414,0.317c-0.454,0.211-0.852,0.487-1.193,0.828c-0.34,0.341-0.608,0.74-0.803,1.194
			c-0.195,0.456-0.293,0.926-0.293,1.414l-0.018,11.305h-6.392l-16.54-4.741c-0.501-0.241-1.012-0.338-1.532-0.326
			c-0.522-0.013-1.034,0.085-1.535,0.326l-16.563,4.655c-0.85,0.407-1.435,1.066-1.755,1.976c-0.319,0.91-0.275,1.79,0.131,2.639
			l0.211,0.44c0.197,0.41,0.467,0.767,0.811,1.071c0.344,0.304,0.729,0.523,1.155,0.661c0.426,0.138,0.865,0.208,1.314,0.208
			c0.451,0,0.896-0.105,1.336-0.316l14.895-3.855c0,0,15.778,4.171,16.23,4.171h8.223l-0.02,12.34c0,0.487,0.104,0.958,0.316,1.413
			c0.211,0.456,0.487,0.853,0.827,1.194c0.342,0.341,0.739,0.618,1.193,0.828c0.456,0.212,0.927,0.317,1.414,0.317h17.64
			c1.883,0,3.63-0.244,5.237-0.731s3.005-1.21,4.192-2.169c1.184-0.958,2.118-2.151,2.801-3.581s1.023-3.086,1.023-4.971
			C558.039,118.999,557.894,118.057,557.601,117.18z M530.799,100.855h13.986c1.429,0,2.477,0.317,3.143,0.95
			c0.665,0.633,0.998,1.471,0.998,2.51c0,1.235-0.349,2.233-1.047,2.997c-0.698,0.764-1.729,1.146-3.094,1.146h-13.986V100.855z
			 M549.219,123.052c-0.942,0.666-2.421,0.999-4.434,0.999h-13.986v-8.089h13.986c2.208,0,3.734,0.358,4.579,1.072
			c0.846,0.715,1.267,1.705,1.267,2.972C550.631,121.371,550.161,122.386,549.219,123.052z"/>
	</g>
</g>
<g>
	<path fill="#FAFBFB" d="M739.211,103.389v-6.481c0-0.488,0.098-0.934,0.292-1.34c0.195-0.406,0.446-0.771,0.756-1.096
		c0.308-0.325,0.674-0.577,1.097-0.755c0.422-0.179,0.859-0.269,1.315-0.269h0.487c0.974,0,1.794,0.349,2.461,1.047
		c0.665,0.7,0.998,1.503,0.998,2.413v8.451L739.211,103.389z M746.617,117.844v10.592c0,0.91-0.333,1.714-0.998,2.413
		c-0.667,0.698-1.487,1.047-2.461,1.047h-0.487c-0.91,0-1.714-0.341-2.412-1.023c-0.699-0.682-1.048-1.494-1.048-2.437v-12.202
		L746.617,117.844z M713.348,105.359v-8.451c0-0.909,0.333-1.713,0.998-2.413c0.667-0.698,1.487-1.047,2.461-1.047h0.487
		c0.456,0,0.894,0.089,1.315,0.269c0.423,0.178,0.789,0.43,1.097,0.755c0.31,0.325,0.561,0.69,0.756,1.096
		c0.194,0.407,0.292,0.852,0.292,1.34v6.481L713.348,105.359z M720.754,116.234v12.202c0,0.943-0.349,1.754-1.048,2.437
		c-0.698,0.682-1.502,1.023-2.412,1.023h-0.487c-0.974,0-1.794-0.35-2.461-1.047c-0.665-0.699-0.998-1.502-0.998-2.413v-10.592
		L720.754,116.234z"/>
	<path fill="#448CCA" d="M788.62,117.18c-0.292-0.877-0.675-1.681-1.146-2.412c-0.472-0.731-0.983-1.381-1.535-1.95
		c-0.553-0.568-1.072-1.047-1.56-1.438c0.293-0.357,0.61-0.762,0.951-1.218c0.341-0.454,0.657-0.975,0.949-1.56
		c0.292-0.584,0.536-1.234,0.731-1.949c0.194-0.714,0.292-1.494,0.292-2.339c0-1.884-0.325-3.509-0.975-4.873
		s-1.511-2.493-2.582-3.387c-1.071-0.893-2.299-1.56-3.68-1.998c-1.38-0.438-2.801-0.658-4.263-0.658h-17.64
		c-0.487,0-0.958,0.105-1.414,0.317c-0.454,0.211-0.852,0.487-1.193,0.828c-0.34,0.341-0.608,0.74-0.803,1.194
		c-0.195,0.456-0.293,0.926-0.293,1.414l-0.018,11.305h-6.392l-16.54-4.741c-0.501-0.241-1.012-0.338-1.532-0.326
		c-0.522-0.013-1.034,0.085-1.535,0.326l-16.563,4.655c-0.85,0.407-1.435,1.066-1.755,1.976c-0.319,0.91-0.275,1.79,0.131,2.639
		l0.211,0.44c0.197,0.41,0.467,0.767,0.811,1.071c0.344,0.304,0.729,0.523,1.155,0.661c0.426,0.138,0.865,0.208,1.314,0.208
		c0.451,0,0.896-0.105,1.336-0.316l14.895-3.855c0,0,15.778,4.171,16.23,4.171h8.223l-0.02,12.34c0,0.487,0.104,0.958,0.316,1.413
		c0.211,0.456,0.487,0.853,0.827,1.194c0.342,0.341,0.739,0.618,1.193,0.828c0.456,0.212,0.927,0.317,1.414,0.317h17.64
		c1.883,0,3.63-0.244,5.237-0.731s3.005-1.21,4.192-2.169c1.184-0.958,2.118-2.151,2.801-3.581s1.023-3.086,1.023-4.971
		C789.059,118.999,788.913,118.057,788.62,117.18z M761.818,100.855h13.986c1.429,0,2.477,0.317,3.143,0.95
		c0.665,0.633,0.998,1.471,0.998,2.51c0,1.235-0.349,2.233-1.047,2.997c-0.698,0.764-1.729,1.146-3.094,1.146h-13.986V100.855z
		 M780.238,123.052c-0.942,0.666-2.421,0.999-4.434,0.999h-13.986v-8.089h13.986c2.208,0,3.734,0.358,4.579,1.072
		c0.846,0.715,1.267,1.705,1.267,2.972C781.65,121.371,781.181,122.386,780.238,123.052z"/>
</g>
<g>
	<path fill="#FAFBFB" d="M162.259,527.523h-39.867c-4.807,0-8.703,3.895-8.703,8.705v39.866c0,4.806,3.896,8.702,8.703,8.702h39.867
		c4.808,0,8.703-3.896,8.703-8.702v-39.866C170.961,531.418,167.067,527.523,162.259,527.523z"/>
	<path fill="#3D5A92" d="M162.872,526.644h-41.091c-4.954,0-8.97,4.015-8.97,8.971v41.091c0,4.954,4.016,8.971,8.97,8.971h41.091
		c4.955,0,8.969-4.017,8.969-8.971v-41.091C171.841,530.658,167.827,526.644,162.872,526.644z M159.305,545.014h-3.917
		c-3.073,0-3.67,1.464-3.67,3.604v4.725h7.331l-0.955,7.403h-6.375v18.992h-7.641v-18.992h-6.393v-7.403h6.393v-5.457
		c0-6.337,3.866-9.786,9.517-9.786c2.711,0,5.035,0.201,5.711,0.294V545.014z"/>
</g>
<g>
	<g>
		<g>
			<g>
				<path fill="#FAFBFB" d="M407.085,549.17c0.716,0,1.058-0.568,1.058-1.703v-5.159c0-1.136-0.341-1.699-1.058-1.699
					c-0.718,0-1.065,0.563-1.065,1.699v5.159C406.02,548.603,406.367,549.17,407.085,549.17z"/>
				<path fill="#FAFBFB" d="M427.896,527.527h-39.86c-4.806,0-8.701,3.896-8.701,8.701v39.862c0,4.804,3.895,8.7,8.701,8.7h39.86
					c4.806,0,8.698-3.896,8.698-8.7v-39.862C436.595,531.424,432.702,527.527,427.896,527.527z"/>
			</g>
		</g>
	</g>
	<g>
		<path fill="#AA2A2E" d="M399.521,559.894v-2.363h-7.906v2.363h2.666v14.43h2.521v-14.43H399.521z M404.103,574.324v-1.365
			c-0.9,1.034-1.758,1.537-2.591,1.537c-0.732,0-1.237-0.298-1.46-0.929c-0.126-0.383-0.201-0.979-0.201-1.863v-9.892h2.265v9.211
			c0,0.529,0,0.807,0.021,0.882c0.055,0.35,0.227,0.529,0.531,0.529c0.454,0,0.933-0.351,1.435-1.062v-9.561h2.269v12.512H404.103z
			 M412.716,570.749c0,1.128-0.333,1.685-0.987,1.685c-0.373,0-0.751-0.179-1.13-0.556v-7.627c0.379-0.373,0.758-0.553,1.13-0.553
			c0.653,0,0.987,0.58,0.987,1.709V570.749z M414.981,570.567v-4.984c0-1.182-0.077-2.012-0.227-2.513
			c-0.302-0.939-0.91-1.413-1.813-1.413c-0.833,0-1.61,0.458-2.342,1.355v-5.482h-2.267v16.793h2.267v-1.211
			c0.758,0.936,1.537,1.383,2.342,1.383c0.904,0,1.511-0.476,1.813-1.407C414.904,572.56,414.981,571.726,414.981,570.567z
			 M421.271,566.592h-2.265v-1.156c0-1.158,0.379-1.738,1.137-1.738c0.75,0,1.128,0.58,1.128,1.738V566.592z M423.54,570.319v-0.33
			h-2.314c0,0.91-0.028,1.411-0.047,1.533c-0.132,0.607-0.459,0.911-1.014,0.911c-0.779,0-1.158-0.576-1.158-1.736v-2.218h4.534
			v-2.592c0-1.338-0.229-2.316-0.702-2.948c-0.636-0.856-1.537-1.282-2.674-1.282c-1.158,0-2.062,0.426-2.715,1.282
			c-0.483,0.631-0.702,1.61-0.702,2.948v4.384c0,1.33,0.247,2.316,0.728,2.943c0.655,0.853,1.557,1.281,2.746,1.281
			c1.184,0,2.111-0.448,2.741-1.355c0.274-0.402,0.452-0.858,0.528-1.359C423.51,571.552,423.54,571.049,423.54,570.319z"/>
		<g>
			<path fill="#AA2A2E" d="M407.058,548.954c0.738,0,1.091-0.586,1.091-1.754v-5.319c0-1.172-0.353-1.752-1.091-1.752
				c-0.742,0-1.097,0.58-1.097,1.752v5.319C405.961,548.368,406.316,548.954,407.058,548.954z"/>
			<path fill="#AA2A2E" d="M428.512,526.642h-41.093c-4.954,0-8.969,4.017-8.969,8.969v41.095c0,4.954,4.015,8.971,8.969,8.971
				h41.093c4.954,0,8.969-4.017,8.969-8.971V535.61C437.48,530.658,433.466,526.642,428.512,526.642z M412.326,538.219h2.285v9.309
				c0,0.537,0,0.816,0.027,0.89c0.049,0.353,0.229,0.537,0.537,0.537c0.458,0,0.939-0.353,1.448-1.073v-9.662h2.291v12.643h-2.291
				v-1.381c-0.914,1.047-1.784,1.557-2.618,1.557c-0.738,0-1.249-0.302-1.476-0.941c-0.126-0.383-0.203-0.989-0.203-1.88V538.219z
				 M403.672,542.338c0-1.352,0.227-2.338,0.716-2.979c0.633-0.862,1.527-1.294,2.669-1.294c1.146,0,2.036,0.432,2.671,1.294
				c0.479,0.641,0.71,1.627,0.71,2.979v4.427c0,1.346-0.231,2.342-0.71,2.975c-0.635,0.864-1.525,1.296-2.671,1.296
				c-1.142,0-2.036-0.432-2.669-1.296c-0.489-0.633-0.716-1.629-0.716-2.975V542.338z M397.544,533.896l1.804,6.663l1.734-6.663
				h2.569l-3.056,10.094v6.872h-2.541v-6.872c-0.229-1.217-0.74-3.003-1.555-5.369c-0.535-1.574-1.093-3.155-1.627-4.725H397.544z
				 M425.677,575.074c-0.458,1.995-2.09,3.464-4.055,3.689c-4.652,0.517-9.36,0.521-14.047,0.517c-4.686,0.004-9.395,0-14.047-0.517
				c-1.965-0.225-3.597-1.695-4.055-3.689c-0.651-2.841-0.651-5.943-0.651-8.867c0-2.928,0.006-6.025,0.661-8.87
				c0.456-1.993,2.087-3.465,4.052-3.684c4.652-0.521,9.362-0.523,14.047-0.521c4.688-0.002,9.395,0,14.049,0.521
				c1.963,0.219,3.595,1.691,4.053,3.684c0.653,2.845,0.651,5.942,0.651,8.87C426.336,569.131,426.334,572.232,425.677,575.074z"/>
		</g>
	</g>
</g>
<g>
	<g>
		<g>
			<path opacity="0.9" fill="#FAFBFB" d="M693.532,527.527h-39.857c-4.806,0-8.7,3.896-8.7,8.701v39.86
				c0,4.804,3.895,8.698,8.7,8.698h39.857c4.809,0,8.703-3.895,8.703-8.698v-39.86C702.235,531.424,698.341,527.527,693.532,527.527
				z"/>
		</g>
	</g>
	<g>
		<ellipse opacity="0.9" fill="#396188" cx="674.042" cy="556.821" rx="6.897" ry="6.681"/>
		<path opacity="0.9" fill="#396188" d="M681.854,550.333h3.881c0.851,0,1.545-0.694,1.545-1.546v-3.698
			c0-0.85-0.694-1.546-1.545-1.546h-3.881c-0.853,0-1.545,0.696-1.545,1.546v3.698C680.31,549.638,681.002,550.333,681.854,550.333z
			"/>
		<path opacity="0.9" fill="#396188" d="M684.718,557.195c0,5.709-4.781,10.338-10.676,10.338c-5.892,0-10.672-4.628-10.672-10.338
			c0-1.026,0.155-2.013,0.442-2.948h-3.153v14.503c0,0.752,0.613,1.362,1.363,1.362h23.91c0.752,0,1.363-0.61,1.363-1.362v-14.503
			h-3.022C684.562,555.182,684.718,556.169,684.718,557.195z"/>
		<path opacity="0.9" fill="#396188" d="M694.15,526.642H653.06c-4.956,0-8.972,4.017-8.972,8.969v41.093
			c0,4.954,4.016,8.969,8.972,8.969h41.091c4.954,0,8.971-4.015,8.971-8.969V535.61C703.121,530.658,699.104,526.642,694.15,526.642
			z M691.177,569.654c0,2.425-1.982,4.406-4.405,4.406h-25.521c-2.425,0-4.409-1.981-4.409-4.406v-25.52
			c0-2.423,1.984-4.406,4.409-4.406h25.521c2.423,0,4.405,1.983,4.405,4.406V569.654z"/>
	</g>
</g>
<rect x="294.938" y="730.346" fill="#448CCA" width="56.583" height="56.582"/>
<rect x="514.987" y="730.346" fill="#FAFBFB" width="56.582" height="56.582"/>
<text transform="matrix(1 0 0 1 238.3462 753.3457)" fill="#FFFFFF" font-family="'ArialMT'" font-size="12">#438bca</text>
<text transform="matrix(1 0 0 1 238.3462 953.1855)" fill="#FFFFFF" font-family="'ArialMT'" font-size="12">LOGO HB: Grover - Regular</text>
<text transform="matrix(1 0 0 1 238.3462 980.1143)" fill="#FFFFFF" font-family="'ArialMT'" font-size="12">Texto/ttulos: Gotham (Regular, medium)</text>
<text transform="matrix(1 0 0 1 466.6162 753.3457)" fill="#FFFFFF" font-family="'ArialMT'" font-size="12">#f9fafa</text>
</svg>
