<?xml version="1.0" encoding="utf-8"?>
<!-- Generator: Adobe Illustrator 16.0.0, SVG Export Plug-In . SVG Version: 6.00 Build 0)  -->
<!DOCTYPE svg PUBLIC "-//W3C//DTD SVG 1.1//EN" "http://www.w3.org/Graphics/SVG/1.1/DTD/svg11.dtd">
<svg version="1.1" id="Layer_1" xmlns="http://www.w3.org/2000/svg" xmlns:xlink="http://www.w3.org/1999/xlink" x="0px" y="0px"
	 width="49.833px" height="51.167px" viewBox="0 0 49.833 51.167" enable-background="new 0 0 49.833 51.167" xml:space="preserve">
<g>
	<g>
		<defs>
			<rect id="SVGID_1_" x="7.175" y="3.495" width="33.984" height="44.178"/>
		</defs>
		<clipPath id="SVGID_2_">
			<use xlink:href="#SVGID_1_"  overflow="visible"/>
		</clipPath>
		<path clip-path="url(#SVGID_2_)" fill="#F3F2F2" d="M38.674,21.307h-0.859v-4.023c0-7.439-5.906-13.655-13.285-13.787
			c-0.201-0.004-0.605-0.004-0.805,0C16.344,3.628,10.44,9.844,10.44,17.284v4.023H9.581c-1.326,0-2.406,1.367-2.406,3.055v20.177
			c0,1.687,1.08,3.065,2.406,3.065h29.093c1.324,0,2.404-1.379,2.404-3.065V24.362C41.079,22.674,39.999,21.307,38.674,21.307
			L38.674,21.307z M26.852,34.429v6.097c0,0.698-0.584,1.289-1.283,1.289h-2.885c-0.697,0-1.281-0.591-1.281-1.289v-6.097
			c-0.68-0.667-1.074-1.589-1.074-2.61c0-1.933,1.494-3.595,3.396-3.67c0.199-0.009,0.604-0.009,0.805,0
			c1.9,0.075,3.395,1.737,3.395,3.67C27.924,32.84,27.53,33.762,26.852,34.429L26.852,34.429z M32.149,21.307H16.104v-4.023
			c0-4.432,3.602-8.096,8.021-8.096c4.422,0,8.023,3.664,8.023,8.096V21.307z M32.149,21.307"/>
	</g>
</g>
</svg>
