<?xml version="1.0" encoding="utf-8"?>
<!-- Generator: Adobe Illustrator 16.0.0, SVG Export Plug-In . SVG Version: 6.00 Build 0)  -->
<!DOCTYPE svg PUBLIC "-//W3C//DTD SVG 1.1//EN" "http://www.w3.org/Graphics/SVG/1.1/DTD/svg11.dtd">
<svg version="1.1" id="Layer_1" xmlns="http://www.w3.org/2000/svg" xmlns:xlink="http://www.w3.org/1999/xlink" x="0px" y="0px"
	 width="64px" height="63.167px" viewBox="0 0 64 63.167" enable-background="new 0 0 64 63.167" xml:space="preserve">
<g>
	<g>
		<g>
			<g>
				<path fill="#F9FAFB" d="M31.369,24.423c0.717,0,1.059-0.567,1.059-1.702v-5.159c0-1.137-0.342-1.699-1.059-1.699
					c-0.718,0-1.064,0.563-1.064,1.699v5.159C30.305,23.855,30.651,24.423,31.369,24.423z"/>
				<path fill="#F9FAFB" d="M52.181,2.78h-39.86c-4.806,0-8.701,3.896-8.701,8.701v39.861c0,4.805,3.895,8.701,8.701,8.701h39.86
					c4.806,0,8.698-3.896,8.698-8.701V11.48C60.879,6.676,56.986,2.78,52.181,2.78z"/>
			</g>
		</g>
	</g>
	<g>
		<path fill="#AA2A2E" d="M23.805,35.146v-2.363h-7.905v2.363h2.666v14.43h2.521v-14.43H23.805z M28.387,49.576v-1.365
			c-0.9,1.033-1.758,1.537-2.591,1.537c-0.731,0-1.237-0.299-1.46-0.93c-0.126-0.383-0.201-0.979-0.201-1.863v-9.891H26.4v9.211
			c0,0.529,0,0.807,0.021,0.881c0.055,0.35,0.227,0.529,0.53,0.529c0.454,0,0.933-0.352,1.435-1.061v-9.561h2.269v12.512H28.387z
			 M37,46.002c0,1.127-0.333,1.684-0.986,1.684c-0.373,0-0.752-0.18-1.131-0.557v-7.627c0.379-0.373,0.758-0.553,1.131-0.553
			c0.653,0,0.986,0.58,0.986,1.709V46.002z M39.266,45.82v-4.984c0-1.182-0.077-2.012-0.227-2.514
			c-0.303-0.939-0.91-1.412-1.814-1.412c-0.832,0-1.609,0.457-2.342,1.355v-5.482h-2.267v16.793h2.267v-1.211
			c0.758,0.936,1.537,1.383,2.342,1.383c0.904,0,1.512-0.477,1.814-1.406C39.188,47.813,39.266,46.979,39.266,45.82z M45.555,41.844
			H43.29v-1.156c0-1.158,0.379-1.738,1.137-1.738c0.749,0,1.128,0.58,1.128,1.738V41.844z M47.824,45.57v-0.328H45.51
			c0,0.908-0.027,1.41-0.047,1.533c-0.133,0.607-0.46,0.91-1.015,0.91c-0.779,0-1.158-0.576-1.158-1.736v-2.217h4.534v-2.592
			c0-1.338-0.229-2.316-0.702-2.948c-0.636-0.856-1.537-1.282-2.674-1.282c-1.158,0-2.062,0.426-2.715,1.282
			c-0.483,0.632-0.702,1.61-0.702,2.948v4.383c0,1.33,0.246,2.316,0.729,2.943c0.654,0.854,1.557,1.281,2.746,1.281
			c1.184,0,2.11-0.447,2.74-1.355c0.274-0.402,0.452-0.859,0.528-1.359C47.794,46.805,47.824,46.301,47.824,45.57z"/>
		<g>
			<path fill="#AA2A2E" d="M31.342,24.206c0.738,0,1.092-0.586,1.092-1.754v-5.319c0-1.172-0.354-1.752-1.092-1.752
				c-0.742,0-1.097,0.58-1.097,1.752v5.319C30.245,23.62,30.6,24.206,31.342,24.206z"/>
			<path fill="#AA2A2E" d="M52.796,1.894H11.703c-4.954,0-8.969,4.017-8.969,8.969v41.094c0,4.955,4.015,8.971,8.969,8.971h41.093
				c4.954,0,8.969-4.016,8.969-8.971V10.863C61.765,5.911,57.75,1.894,52.796,1.894z M36.609,13.471h2.285v9.309
				c0,0.536,0,0.816,0.027,0.89c0.049,0.353,0.229,0.536,0.537,0.536c0.457,0,0.939-0.353,1.447-1.073v-9.662h2.291v12.643h-2.291
				v-1.381c-0.913,1.047-1.783,1.557-2.617,1.557c-0.738,0-1.249-0.302-1.477-0.941c-0.126-0.383-0.203-0.988-0.203-1.88V13.471z
				 M27.957,17.591c0-1.352,0.227-2.338,0.715-2.979c0.634-0.862,1.527-1.294,2.67-1.294c1.146,0,2.036,0.432,2.672,1.294
				c0.479,0.641,0.71,1.627,0.71,2.979v4.428c0,1.346-0.231,2.342-0.71,2.975c-0.636,0.864-1.525,1.297-2.672,1.297
				c-1.143,0-2.036-0.433-2.67-1.297c-0.488-0.633-0.715-1.629-0.715-2.975V17.591z M21.828,9.148l1.804,6.663l1.733-6.663h2.569
				l-3.056,10.094v6.872h-2.542v-6.872c-0.229-1.217-0.74-3.003-1.555-5.369c-0.535-1.574-1.093-3.155-1.627-4.725H21.828z
				 M49.961,50.326c-0.458,1.994-2.09,3.465-4.055,3.689c-4.652,0.516-9.359,0.52-14.047,0.516c-4.687,0.004-9.396,0-14.048-0.516
				c-1.965-0.225-3.597-1.695-4.055-3.689c-0.651-2.842-0.651-5.943-0.651-8.867c0-2.928,0.006-6.025,0.661-8.869
				c0.456-1.993,2.087-3.465,4.052-3.684c4.652-0.521,9.362-0.523,14.048-0.521c4.688-0.002,9.395,0,14.049,0.521
				c1.963,0.219,3.595,1.69,4.053,3.684c0.653,2.844,0.651,5.941,0.651,8.869C50.62,44.383,50.618,47.484,49.961,50.326z"/>
		</g>
	</g>
</g>
</svg>
